<ttFont>
<head>
    <!-- Most of this table will be recalculated by the compiler -->
    <tableVersion value="1.0"/>
    <fontRevision value="2.004"/>
    <checkSumAdjustment value="0x6d6a5409"/>
    <magicNumber value="0x5f0f3cf5"/>
    <flags value="00000000 00000011"/>
    <unitsPerEm value="1000"/>
    <created value="Thu Oct  8 09:59:21 2009"/>
    <modified value="Thu Oct  8 09:59:21 2009"/>
    <xMin value="-474"/>
    <yMin value="-549"/>
    <xMax value="1500"/>
    <yMax value="1514"/>
    <macStyle value="00000000 00000010"/>
    <lowestRecPPEM value="3"/>
    <fontDirectionHint value="2"/>
    <indexToLocFormat value="0"/>
    <glyphDataFormat value="0"/>
  </head>
          <CharString index="0">
            111 callgsubr
            -8 2 -5 hhcurveto
            -9 -3 -6 -8 -3 hvcurveto
            -103 -53 -90 0 -10 hhcurveto
            -50 -35 30 37 -16 hvcurveto
            -22 48 11 66 6 36 rrcurveto
            279 159 callgsubr
            99 17 -38 97 -125 hhcurveto
            -116 -109 -103 -125 -21 hvcurveto
            -134 -23 89 -97 115 hhcurveto
            122 64 126 callsubr
            -237 hlineto
            149 31 88 25 34 hhcurveto
            103 -12 -135 -39 -7 hvcurveto
            return
          </CharString>
          <CharString index="1">
            507 214 rmoveto
            128 21 -82 106 -121 hhcurveto
            -125 -115 -109 -125 -21 hvcurveto
            -129 -22 88 -96 117 hhcurveto
            121 118 98 127 21 hvcurveto
            -82 8 rmoveto
            -6 -36 -9 -54 -29 -44 rrcurveto
            -45 -30 -49 -29 -50 hhcurveto
            -43 -40 21 46 -19 hvcurveto
            -18 44 10 61 6 36 7 39 9 54 31 44 rrcurveto
            46 35 50 21 40 hhcurveto
            44 39 -22 -43 19 hvcurveto
            19 -43 -10 -58 -6 -38 rrcurveto
            return
          </CharString>
          <CharString index="2">
            801 478 rmoveto
            295 49 -125 210 -172 hhcurveto
            -176 -193 -213 -292 -48 209 callsubr
            175 193 209 291 49 hvcurveto
            -100 19 rmoveto
            -350 -58 -146 -143 -107 hhcurveto
            -108 -98 143 350 58 hvcurveto
            350 58 155 111 93 hhcurveto
            95 116 -113 -348 -58 hvcurveto
            return
          </CharString>
          <CharString index="3">
            -103 callgsubr
            endchar
          </CharString>
          <CharString index="4">
            25 hlineto
            44 265 rlineto
            -25 hlineto
            -86 -14 -16 -31 -97 hhcurveto
            -90 hlineto
            62 374 rlineto
            33 5 4 7 47 hhcurveto
            129 hlineto
            153 17 -55 -139 -7 hvcurveto
            25 hlineto
            10 225 rlineto
            -563 -84 callsubr
            577 hlineto
            return
          </CharString>
          <CharString index="5">
            15 89 -15 53 -12 35 -24 68 -53 20 -30 11 -87 31 rcurveline
            -35 13 -23 9 -20 40 -20 41 2 56 7 38 rrcurveto
            104 17 69 91 79 hhcurveto
            150 7 -158 -131 -12 hvcurveto
            -20 -2 0 -4 11 hhcurveto
            13 1 5 19 3 hvcurveto
            49 293 rlineto
            17 3 1 7 -11 hhcurveto
            -9 -2 -4 -11 -7 hvcurveto
            -44 -74 rlineto
            78 -37 -67 11 -43 hhcurveto
            -110 -105 -114 -145 -24 hvcurveto
            -8 -48 -2 -52 22 -59 25 -66 51 -19 41 -15 98 -36 rcurveline
            86 -32 -9 -119 -9 -55 rrcurveto
            -115 -19 -70 -99 -80 hhcurveto
            -215 38 252 47 6 hvcurveto
            9 2 -6 2 -6 hhcurveto
            -13 -1 -7 -18 -3 hvcurveto
            -49 -292 112 callsubr
            8 2 2 14 8 hvcurveto
            9 14 5 11 34 52 rrcurveto
            -48 27 49 -45 93 hhcurveto
            114 104 126 226 callgsubr
            return
          </CharString>
          <CharString index="6">
            rmoveto
            57 9 -16 37 -36 hhcurveto
            -31 -21 -24 -23 -3 hvcurveto
            212 callsubr
            11 5 9 13 hvcurveto
            0 2 -1 -2 -12 vhcurveto
            -10 -58 -34 -55 -47 -42 -6 -5 -1 -1 -1 -4 rrcurveto
            -6 116 callsubr
            82 71 104 18 hvcurveto
            endchar
          </CharString>
          <CharString index="7">
            333 -13 callgsubr
            -26 hlineto
            -79 -1 11 36 6 hvcurveto
            79 callsubr
            5 11 79 hhcurveto
            26 101 callsubr
            -3 -35 -79 0 -39 5 callsubr
            26 hlineto
            156 callgsubr
            -5 -31 rlineto
            3 36 79 0 38 hhcurveto
            39 79 71 callsubr
            return
          </CharString>
          <CharString index="8">
            -34 -24 -28 -25 -5 hvcurveto
            -27 -4 40 callsubr
            -54 callsubr
            return
          </CharString>
          <CharString index="9">
            rmoveto
            17 3 -6 32 -39 hhcurveto
            -20 -45 -6 -41 -49 hvcurveto
            hintmask 000010000100000000000000
            33 -37 -41 3 -22 hhcurveto
            -93 -81 -69 -77 -13 hvcurveto
            hintmask 001000001010000000000000
            -7 -44 16 -38 21 -21 -15 -15 -24 -33 -6 -35 -5 -31 7 -38 28 -20 -63 -17 -40 -43 -6 -40 rrcurveto
            hintmask 100000000001000010000000
            -72 -12 90 -55 122 hhcurveto
            118 112 51 78 13 hvcurveto
            6 35 -5 51 -47 28 rrcurveto
            hintmask 011101000000011000000000
            28 -48 -58 0 -61 hhcurveto
            -25 -43 0 1 -7 hvcurveto
            -31 4 -16 31 5 32 1 4 4 23 20 20 rrcurveto
            -28 34 41 -3 19 hhcurveto
            93 80 69 77 13 hvcurveto
            6 37 -9 37 -22 23 rrcurveto
            34 42 37 5 18 hhcurveto
            0 7 0 3 -1 vhcurveto
            -12 -4 -7 -11 -2 -12 rrcurveto
            -17 -3 11 -12 16 hhcurveto
            10 21 7 23 3 hvcurveto
            -194 -108 rmoveto
            -4 -27 -6 -32 -20 -25 rrcurveto
            -12 -10 -27 -28 -40 hhcurveto
            224 callgsubr
            -87 16 100 23 4 hvcurveto
            hintmask 100010001010001000000000
            5 27 6 32 19 25 rrcurveto
            12 10 28 28 40 hhcurveto
            87 -17 -100 -23 -4 hvcurveto
            48 -375 rmoveto
            -54 -9 -80 -50 -98 hhcurveto
            -101 -60 51 53 9 hvcurveto
            hintmask 010000000001000000000000
            7 46 45 37 44 3 rrcurveto
            hintmask 010000000000100100000000
            59 hlineto
            86 112 0 -86 -14 hvcurveto
            return
          </CharString>
          <CharString index="10">
            rmoveto
            24 4 -16 26 -30 hhcurveto
            -28 -25 -22 -28 -5 hvcurveto
            -28 -5 19 -22 28 hhcurveto
            30 24 26 24 4 hvcurveto
            193 hmoveto
            28 5 -19 22 -28 hhcurveto
            -30 -24 -26 -24 -4 hvcurveto
            -24 -4 16 -26 30 hhcurveto
            28 25 22 28 5 hvcurveto
            return
          </CharString>
          <CharString index="11">
            871 930 rmoveto
            5 31 -117 -3 -117 39 callgsubr
            103 -8 -47 -27 -4 hvcurveto
            -110 -659 rlineto
            -1 hlineto
            -233 749 rlineto
            14 -5 -1 1 -20 hhcurveto
            -165 102 callgsubr
            28 hlineto
            21 35 -2 -6 18 hvcurveto
            -136 -817 rlineto
            -27 -5 -8 -47 -103 hhcurveto
            -5 -31 118 3 116 -3 -77 callsubr
            -103 8 47 27 5 hvcurveto
            130 782 rlineto
            1 hlineto
            272 -872 rlineto
            -12 4 0 -3 10 hhcurveto
            14 1 7 19 3 hvcurveto
            139 830 rlineto
            27 4 8 47 103 hhcurveto
            return
          </CharString>
          <CharString index="12">
            rmoveto
            24 4 -15 26 -30 hhcurveto
            -28 -26 -22 -28 -5 hvcurveto
            -28 -4 18 -22 28 hhcurveto
            30 24 26 24 4 hvcurveto
            193 hmoveto
            28 5 -18 22 -28 hhcurveto
            -30 -25 -26 -24 -4 hvcurveto
            -24 -4 16 -26 30 hhcurveto
            28 26 22 28 4 hvcurveto
            return
          </CharString>
          <CharString index="13">
            -87 -15 -59 -68 -73 hhcurveto
            -84 4 47 52 8 hvcurveto
            56 332 53 callgsubr
            78 -1 -3 -89 -15 hvcurveto
            -25 -150 rlineto
            -78 -13 -15 -91 152 hhcurveto
            56 49 28 60 38 hvcurveto
            88 callsubr
            return
          </CharString>
          <CharString index="14">
            -52 callgsubr
            -95 -569 rlineto
            -180 -30 87 -156 139 hhcurveto
            112 117 123 176 44 hvcurveto
            5 18 6 36 4 20 85 510 rcurveline
            55 9 44 14 61 hhcurveto
            return
          </CharString>
          <CharString index="15">
            695 258 rmoveto
            -25 hlineto
            -154 -51 -35 -73 -172 hhcurveto
            -133 hlineto
            -47 -1 7 33 6 hvcurveto
            68 411 rlineto
            90 hlineto
            97 6 -32 -85 -14 hvcurveto
            return
          </CharString>
          <CharString index="16">
            -99 callgsubr
            -52 callgsubr
            return
          </CharString>
          <CharString index="17">
            770 400 119 callgsubr
            -22 -30 -1 -22 hhcurveto
            -29 -44 2 1 -19 hvcurveto
            -5 -31 36 -1 19 -18 -5 -29 rlinecurve
            -1 -6 -1 -2 -7 -13 -133 -256 rcurveline
            -53 279 -2 12 -1 2 1 5 rlinecurve
            27 5 39 0 20 hhcurveto
            5 31 -105 -3 rlineto
            -30 -28 1 2 -30 -22 callsubr
            37 15 -2 -13 8 hvcurveto
            4 -6 6 -30 4 -19 -126 -242 rcurveline
            -51 267 rlineto
            -3 12 1 2 4 vvcurveto
            27 5 39 0 20 129 callgsubr
            -92 39 callgsubr
            50 11 -3 -32 7 hvcurveto
            67 -354 rlineto
            -14 2 2 -8 13 hhcurveto
            13 3 6 14 8 hvcurveto
            148 283 54 -284 rlineto
            -11 2 2 -8 13 hhcurveto
            13 5 9 10 5 hvcurveto
            172 328 26 50 34 13 35 1 rlinecurve
            return
          </CharString>
          <CharString index="18">
            625 258 rmoveto
            -25 hlineto
            -102 -28 -35 -125 -176 hhcurveto
            -82 hlineto
            -47 -1 7 33 6 hvcurveto
            135 811 rlineto
            34 6 2 14 95 hhcurveto
            33 hlineto
            71 callgsubr
            -91 0 -41 hhcurveto
            -39 -78 -47 callsubr
            521 hlineto
            return
          </CharString>
          <CharString index="19">
            rlineto
            -93 callgsubr
            return
          </CharString>
          <CharString index="20">
            -97 callsubr
            endchar
          </CharString>
          <CharString index="21">
            rmoveto
            -14 15 rlineto
            0 -46 -48 -44 -23 -22 15 10 -16 vhcurveto
            16 -24 -17 7 -17 hhcurveto
            -38 -22 -22 -56 -61 hvcurveto
            14 -15 rlineto
            0 46 48 44 23 22 -15 -10 16 vhcurveto
            -16 24 17 -7 17 hhcurveto
            38 22 22 56 61 hvcurveto
            endchar
          </CharString>
          <CharString index="22">
            736 -13 callgsubr
            -50 -21 2 53 -17 hvcurveto
            -157 505 250 276 55 61 55 1 21 1 rlinecurve
            -77 callsubr
            -3 -27 -31 0 -27 hhcurveto
            -35 -57 0 3 -34 hvcurveto
            -5 -31 50 -2 10 -28 -2 -15 rlinecurve
            -2 -8 -4 -7 -8 -9 -418 -460 rcurveline
            80 482 -91 callsubr
            -81 callsubr
            47 281 144 159 131 -421 rlineto
            4 -12 0 -2 -9 vvcurveto
            0 1 -3 -1 -4 vhcurveto
            -36 -6 -48 0 -21 129 callsubr
            3 37 66 0 38 hhcurveto
            return
          </CharString>
          <CharString index="23">
            hlineto
            -5 -31 rlineto
            24 hlineto
            155 callgsubr
            -5 -31 rlineto
            return
          </CharString>
          <CharString index="24">
            -36 -6 -4 -11 -77 hhcurveto
            -24 hlineto
            return
          </CharString>
          <CharString index="25">
            -47 -47 -25 -41 -7 hvcurveto
            -19 -3 12 -11 16 hhcurveto
            15 16 11 18 3 hvcurveto
            return
          </CharString>
          <CharString index="26">
            -134 -805 -79 callgsubr
            return
          </CharString>
          <CharString index="27">
            290 rmoveto
            10 57 8 65 -29 74 rrcurveto
            83 -33 -42 30 -62 hhcurveto
            -77 -42 -57 -50 -24 hvcurveto
            5 28 rlineto
            264 44 103 135 93 hhcurveto
            50 29 -28 -41 5 hvcurveto
            1 -4 -2 1 -9 hhcurveto
            -22 -26 -15 -31 -6 hvcurveto
            -31 -5 22 -15 22 hhcurveto
            10 36 4 46 8 hvcurveto
            61 10 -22 73 -93 hhcurveto
            -133 -160 -185 -308 -52 hvcurveto
            -19 -113 -6 -80 8 -82 rrcurveto
            -97 10 38 -101 99 hhcurveto
            78 52 50 59 45 hvcurveto
            54 71 18 62 11 70 rrcurveto
            -89 1 rmoveto
            -12 -68 -10 -60 -23 -52 rrcurveto
            -38 -17 -39 -67 -64 hhcurveto
            -116 40 240 96 16 hvcurveto
            61 10 31 174 118 hhcurveto
            113 -31 -189 -97 -16 hvcurveto
            endchar
          </CharString>
          <CharString index="28">
            104 18 80 56 64 hhcurveto
            63 2 -54 -57 -9 hvcurveto
            -39 -233 18 callsubr
            return
          </CharString>
          <CharString index="29">
            -21 -1 -1 -3 14 hhcurveto
            16 1 3 21 3 hvcurveto
            60 358 rlineto
            17 3 1 7 -11 hhcurveto
            -7 -1 -1 -13 -8 hvcurveto
            -65 -101 return
          </CharString>
          <CharString index="30">
            5 31 rlineto
            return
          </CharString>
          <CharString index="31">
            hvcurveto
            -78 callsubr
            rlineto
            return
          </CharString>
          <CharString index="32">
            -45 -8 -36 callsubr
            return
          </CharString>
          <CharString index="33">
            605 267 rmoveto
            -25 hlineto
            -140 -32 -35 -93 -185 hhcurveto
            -172 hlineto
            546 891 8 12 1 2 1 6 rlinecurve
            16 2 -6 0 -20 hhcurveto
            -448 hlineto
            -48 -225 rlineto
            25 hlineto
            115 26 46 79 162 hhcurveto
            164 hlineto
            -547 -892 -8 -12 0 -2 -1 -7 rlinecurve
            -17 -3 5 0 21 hhcurveto
            461 hlineto
            return
          </CharString>
          <CharString index="34">
            716 -95 callsubr
            return
          </CharString>
          <CharString index="35">
            -9 -55 rlineto
            -74 -12 -37 -38 -37 hhcurveto
            -67 16 91 17 2 hvcurveto
            47 278 rlineto
            143 101 callsubr
            -143 hlineto
            31 184 rlineto
            -25 hlineto
            -15 -82 -48 -107 -99 -4 -3 -22 rcurveline
            85 hlineto
            -46 -276 rlineto
            -123 -21 91 -12 36 hhcurveto
            71 40 71 64 11 hvcurveto
            return
          </CharString>
          <CharString index="36">
            -87 callgsubr
            24 hlineto
            -52 callgsubr
            -69 callsubr
            return
          </CharString>
          <CharString index="37">
            -11 29 -27 hhcurveto
            -11 -9 -6 -6 -11 hvcurveto
            return
          </CharString>
          <CharString index="38">
            -134 -805 -88 callsubr
            return
          </CharString>
          <CharString index="39">
            202 -50 rmoveto
            82 492 -154 68 callgsubr
            77 8 -7 -49 -9 hvcurveto
            -66 -396 rlineto
            -45 -7 -24 -86 -64 hhcurveto
            -5 -23 0 13 -23 hvcurveto
            15 4 23 14 4 27 rrcurveto
            26 4 -14 20 -28 hhcurveto
            -28 -22 -20 -26 -4 hvcurveto
            -52 -9 52 -28 57 hhcurveto
            75 72 64 91 16 hvcurveto
            return
          </CharString>
          <CharString index="40">
            -48 callsubr
            8 hvcurveto
            return
          </CharString>
          <CharString index="41">
            5 12 -14 5 -7 -10 rrcurveto
            -36 -23 -31 -20 -32 hhcurveto
            -36 -48 23 46 8 hvcurveto
            return
          </CharString>
          <CharString index="42">
            2 rrcurveto
            11 15 21 7 23 hhcurveto
            45 6 -13 0 hvcurveto
            return
          </CharString>
          <CharString index="43">
            801 478 rmoveto
            36 220 -64 128 -30 44 90 134 rcurveline
            -20 12 -84 -125 rlineto
            28 -25 -53 64 -98 hhcurveto
            -176 -193 -213 -292 -48 hvcurveto
            -36 -215 62 -125 31 -47 -88 -134 rcurveline
            19 -12 84 125 rlineto
            -25 21 55 -67 100 hhcurveto
            175 193 209 291 49 hvcurveto
            -102 369 rmoveto
            -471 -705 -35 99 12 118 20 119 rlinecurve
            15 90 24 130 70 110 rrcurveto
            92 58 77 61 79 hhcurveto
            79 46 -57 -57 26 hvcurveto
            13 -369 rmoveto
            -14 -80 -23 -126 -62 -106 rrcurveto
            -110 -67 -82 -56 -75 hhcurveto
            -80 -48 60 54 -23 hvcurveto
            472 705 34 -106 -13 -120 -19 -115 rlinecurve
            return
          </CharString>
          <CharString index="44">
            rmoveto
            -20 15 -166 -129 -123 129 -24 -15 136 -181 rlineto
            endchar
          </CharString>
          <CharString index="45">
            29 callgsubr
            147 80 callgsubr
            -45 callgsubr
            return
          </CharString>
          <CharString index="46">
            -47 callgsubr
            65 392 rlineto
            115 hlineto
            27 38 -2 -56 27 hvcurveto
            22 -47 -9 -54 -12 -70 -19 -115 -5 -33 28 -53 rrcurveto
            return
          </CharString>
          <CharString index="47">
            0 3 -35 -22 callsubr
            return
          </CharString>
          <CharString index="48">
            -2 -5 -5 -1 -5 hhcurveto
            -118 39 callgsubr
            27 27 -1 -15 20 hvcurveto
            15 -10 7 -18 -4 -20 -91 -546 rcurveline
            -14 -84 -30 -76 -50 -63 rrcurveto
            -54 -43 -55 -35 -54 hhcurveto
            -49 -38 36 52 -19 hvcurveto
            -24 61 3 70 15 93 96 574 rcurveline
            return
          </CharString>
          <CharString index="49">
            752 119 rmoveto
            11 2 1 9 -13 hhcurveto
            -11 -2 -8 -14 -2 hvcurveto
            -35 -7 -23 -82 -55 hhcurveto
            -23 -12 17 28 -4 hvcurveto
            -5 27 0 33 5 78 rrcurveto
            return
          </CharString>
          <CharString index="50">
            620 930 rmoveto
            5 31 -129 -3 rlineto
            -42 -88 0 3 -38 -22 callsubr
            36 hlineto
            98 -2 -13 -35 -6 hvcurveto
            -114 -682 rlineto
            -100 -16 -58 -100 -62 hhcurveto
            -54 -42 43 63 -5 hvcurveto
            -1 5 2 -1 9 hhcurveto
            28 32 20 36 6 hvcurveto
            36 6 -23 20 -30 hhcurveto
            -20 -38 -11 -48 -8 hvcurveto
            -86 -14 46 -93 98 hhcurveto
            88 102 78 128 31 hvcurveto
            2 6 0 2 8 45 104 624 rcurveline
            return
          </CharString>
          <CharString index="51">
            132 callsubr
            hintmask 00100000
            87 callgsubr
            hintmask 00010000
            -42 callsubr
            hintmask 00100000
            15 -15 rlineto
            hintmask 00010000
            87 callsubr
            hintmask 00100000
            -38 callsubr
          </CharString>
          <CharString index="52">
            392 100 callsubr
            147 -21 296 -20 22 callgsubr
            hintmask 01000010
            6 callsubr
            hintmask 10000101
            -51 callgsubr
            hintmask 00100011
            -67 callgsubr
            return
          </CharString>
          <CharString index="53">
            34 24 -15 callsubr
            return
          </CharString>
          <CharString index="54">
            -95 callsubr
            endchar
          </CharString>
          <CharString index="55">
            -28 callsubr
            -2 callgsubr
            return
          </CharString>
          <CharString index="56">
            444 -11 25 280 92 37 25 141 161 callsubr
            70 83 173 83 -40 92 hintmask 11100110
            -35 callsubr
            hintmask 10100110
            68 11 -69 39 -77 hhcurveto
            -125 -110 -108 -124 -21 hvcurveto
            -128 -21 82 -99 116 hhcurveto
            134 52 120 10 2 hvcurveto
            hintmask 00011000
            return
          </CharString>
          <CharString index="57">
            3 callgsubr
            -160 hmoveto
            -96 callgsubr
            endchar
          </CharString>
          <CharString index="58">
            132 callgsubr
            hstemhm
            -106 callgsubr
            hintmask 00000110
            return
          </CharString>
          <CharString index="59">
            67 callgsubr
            -11 0 45 return
          </CharString>
          <CharString index="60">
            0 3 -35 hvcurveto
            -71 callsubr
            return
          </CharString>
          <CharString index="61">
            -95 callgsubr
            endchar
          </CharString>
          <CharString index="62">
            rmoveto
            5 32 rlineto
            -361 hlineto
            -5 -32 rlineto
            endchar
          </CharString>
          <CharString index="63">
            527 136 callsubr
            147 885 -28 callsubr
            -83 -494 rlineto
            36 -23 -38 26 -54 hhcurveto
            -118 -122 -98 -129 -21 hvcurveto
            -127 -21 81 -99 114 hhcurveto
            64 51 34 32 30 hvcurveto
            -11 -66 rlineto
            22 129 rmoveto
            -3 -18 -1 -2 -13 -17 rrcurveto
            return
          </CharString>
          <CharString index="64">
            rmoveto
            -20 15 -170 -213 -99 213 -24 -15 109 -281 rlineto
            endchar
          </CharString>
          <CharString index="65">
            -60 -50 39 -62 hhcurveto
            -56 -31 -34 -35 -37 hvcurveto
            return
          </CharString>
          <CharString index="66">
            -46 callgsubr
            -20 return
          </CharString>
          <CharString index="67">
            rmoveto
            -45 -8 -30 -20 -43 hhcurveto
            -42 -25 19 46 8 hvcurveto
            45 7 31 20 43 hhcurveto
            42 25 -19 -46 -8 hvcurveto
            26 1 rmoveto
            46 8 -34 41 -54 hhcurveto
            -58 -47 -43 -44 -7 hvcurveto
            -51 -8 37 -38 51 hhcurveto
            56 48 40 49 8 hvcurveto
            return
          </CharString>
          <CharString index="68">
            hstemhm
            hintmask 00110000
            498 89 rmoveto
            9 56 rlineto
            -25 hlineto
            -9 -56 rlineto
            -58 -10 -26 -6 -11 hhcurveto
            -33 4 45 5 1 hvcurveto
            33 200 7 42 6 39 -29 37 rlinecurve
            39 -33 -47 16 -48 hhcurveto
            -82 -77 -47 -66 -11 hvcurveto
            -30 -5 17 -17 26 hhcurveto
            28 21 20 26 5 hvcurveto
            2 12 0 33 -46 1 rrcurveto
            35 33 51 11 32 hhcurveto
            49 51 -39 -89 -15 hvcurveto
            -6 -37 -52 -3 -70 -3 -68 -30 rlinecurve
            -81 -34 -34 -52 -7 -44 rrcurveto
            hintmask 11000000
            -81 -14 93 -25 63 hhcurveto
            66 53 40 47 27 hvcurveto
            -2 -22 6 -23 14 -16 -55 -30 -60 -54 -8 -52 rrcurveto
            -46 -8 40 -44 64 hhcurveto
            119 callsubr
            31 39 24 rrcurveto
            hintmask 00100000
            -4 7 10 -2 11 hhcurveto
            21 63 14 81 14 hvcurveto
            -159 51 rmoveto
            hintmask 01000000
            -95 -15 -78 -34 -45 hhcurveto
            -49 -35 35 50 8 hvcurveto
            9 55 56 83 166 6 rrcurveto
            return
          </CharString>
          <CharString index="69">
            60 51 -39 63 hhcurveto
            9 hlineto
            47 4 32 32 34 33 rrcurveto
            endchar
          </CharString>
          <CharString index="70">
            764 1 31 425 31 443 31 hstemhm
            113 100 -86 86 0 86 -81 86 294 189 hintmask 01110011
            787 472 rmoveto
            15 93 2 93 -23 86 -24 94 -56 103 -103 18 rrcurveto
            3 -19 -19 0 -19 hhcurveto
            -347 102 callgsubr
            13 14 1 13 hhcurveto
            35 27 -6 -39 -6 hvcurveto
            -67 -399 rlineto
            -92 hlineto
            -7 -1 -5 -8 -1 -7 rrcurveto
            hintmask 11001001
            -11 -2 6 -4 10 hhcurveto
            86 hlineto
            -63 -382 rlineto
            -39 -7 -35 -4 -36 hhcurveto
            -33 102 callgsubr
            347 hlineto
            248 126 282 189 32 hvcurveto
            -97 19 rmoveto
            -20 -119 -22 -126 -80 -105 rrcurveto
            -64 -50 -65 -45 -83 hhcurveto
            -103 hlineto
            -21 -17 5 27 5 hvcurveto
            hintmask 01000100
            65 393 rlineto
            177 hlineto
            6 6 3 6 3 hvcurveto
            1 7 rlineto
            10 2 -6 5 -10 hhcurveto
            hintmask 01100010
            -174 hlineto
            69 409 rlineto
            32 5 21 2 22 hhcurveto
            93 hlineto
            210 -4 -261 -168 -28 hvcurveto
            endchar
          </CharString>
          <CharString index="71">
            -11 0 -67 hhcurveto
            return
          </CharString>
          <CharString index="72">
            -41 callgsubr
            hintmask 01000001
            25 callsubr
            return
          </CharString>
          <CharString index="73">
            132 callgsubr
            hstemhm
            hintmask 11000000
            -105 callsubr
            hintmask 00110000
            return
          </CharString>
          <CharString index="74">
            22 hintmask 11000100
            -14 callgsubr
            91 callsubr
            return
          </CharString>
          <CharString index="75">
            60 11 -17 45 -43 hhcurveto
            -35 -22 -27 -26 -5 hvcurveto
            -26 -4 12 -27 36 hhcurveto
            20 16 10 6 7 hvcurveto
            1 2 3 1 0 vvcurveto
            0 -1 -14 -1 -4 vhcurveto
            -5 -32 -19 -72 -73 -62 rrcurveto
            -14 -12 -1 -2 -3 vvcurveto
            -7 116 callsubr
            96 76 118 19 hvcurveto
            return
          </CharString>
          <CharString index="76">
            94 rmoveto
            165 27 -58 139 -109 hhcurveto
            -63 -48 -37 -29 -27 hvcurveto
            52 310 rlineto
            hintmask 0001010010000000
            -14 26 29 -7 30 hhcurveto
            123 84 102 16 2 hvcurveto
            6 1 -2 4 -7 hhcurveto
            0 -4 0 -11 -7 vhcurveto
            -26 -44 -50 -12 -43 hhcurveto
            -70 -40 28 13 -17 hvcurveto
            hintmask 0000010000100000
            -7 4 -3 0 0 vvcurveto
            hintmask 1110100101000000
            -10 -1 -8 -16 -3 hvcurveto
            -71 -426 rlineto
            -18 -3 -1 -8 14 hhcurveto
            8 2 4 9 7 hvcurveto
            19 13 48 71 82 hhcurveto
            43 19 -43 -59 7 hvcurveto
            6 -49 -8 -58 -11 -67 -10 -57 -12 -75 -35 -61 rrcurveto
            -54 -31 -42 -41 -50 hhcurveto
            -78 -47 75 113 6 hvcurveto
            -3 5 2 -1 13 hhcurveto
            hintmask 1100000010000000
            34 21 25 24 4 hvcurveto
            24 4 -13 25 -33 hhcurveto
            -31 -21 -19 -37 -7 hvcurveto
            -103 -17 25 -151 130 hhcurveto
            113 127 126 184 31 hvcurveto
            endchar
          </CharString>
          <CharString index="77">
            104 callgsubr
            9 -22 272 126 203 callsubr
            rlinecurve
            endchar
          </CharString>
          <CharString index="78">
            786 472 rmoveto
            267 44 -95 222 -177 hhcurveto
            -363 -6 callsubr
            364 hlineto
            170 172 205 267 45 hvcurveto
            -100 1 rmoveto
            return
          </CharString>
          <CharString index="79">
            -146 -11 86 callgsubr
            return
          </CharString>
          <CharString index="80">
            -11 callgsubr
            638 return
          </CharString>
          <CharString index="81">
            rmoveto
            -151 -25 -58 -7 -14 hhcurveto
            -20 -47 15 143 24 hvcurveto
            142 23 52 16 21 hhcurveto
            11 59 -3 -155 -26 hvcurveto
            26 1 rmoveto
            102 17 -31 78 -51 hhcurveto
            -55 -56 -82 -98 -16 hvcurveto
            -106 -18 33 -76 50 hhcurveto
            54 56 80 102 17 hvcurveto
            endchar
          </CharString>
          <CharString index="82">
            708 0 31 458 22 419 31 hstem
            648 97 vstem
            694 255 rmoveto
            22 133 -74 102 -109 12 107 23 87 93 18 107 rrcurveto
            123 20 -73 113 -134 hhcurveto
            -362 -6 callsubr
            390 hlineto
            133 112 121 134 23 hvcurveto
            -46 470 rmoveto
            -99 -17 -72 -115 -105 hhcurveto
            -147 hlineto
            63 379 rlineto
            33 6 3 7 47 hhcurveto
            122 hlineto
            104 8 -133 -72 -12 hvcurveto
            -54 -469 rmoveto
            -99 -17 -68 -126 -110 hhcurveto
            -123 hlineto
            -47 -1 7 33 6 hvcurveto
            70 418 rlineto
            182 hlineto
            24 50 0 -83 27 hvcurveto
            17 -53 -4 -57 -6 -40 rrcurveto
            endchar
          </CharString>
          <CharString index="83">
            6 -6 -1 -10 -3 -19 -2 -11 return
          </CharString>
          <CharString index="84">
            428 381 rmoveto
            32 5 -26 29 -43 hhcurveto
            -73 -47 -67 -40 -20 hvcurveto
            -1 hlineto
            18 107 rlineto
            return
          </CharString>
          <CharString index="85">
            hvcurveto
            -87 callgsubr
            return
          </CharString>
          <CharString index="86">
            681 0 31 424 26 449 31 hstemhm
            151 89 -26 89 32 103 201 103 hintmask 00101000
            742 706 rmoveto
            133 22 -77 122 -142 hhcurveto
            -350 -20 callsubr
            hintmask 10010100
            -81 callsubr
            hintmask 01101110
            63 377 rlineto
            165 hlineto
            123 127 108 143 24 hvcurveto
            -103 hmoveto
            -10 -56 -9 -55 -38 -47 rrcurveto
            -20 -16 -45 -47 -83 hhcurveto
            -134 hlineto
            68 409 rlineto
            33 6 3 7 47 hhcurveto
            85 hlineto
            63 39 -27 -37 18 hvcurveto
            25 -46 -10 -59 -9 -55 rrcurveto
            endchar
          </CharString>
          <CharString index="87">
            102 callgsubr
            24 hlineto
            -52 callgsubr
            return
          </CharString>
          <CharString index="88">
            472 rmoveto
            19 113 8 95 -13 97 rrcurveto
            91 -14 -42 76 -84 hhcurveto
            -78 -53 -50 -52 -42 hvcurveto
            -60 -75 -18 -65 -12 -70 -11 -71 -4 -66 36 -77 rrcurveto
            -50 22 32 -45 74 hhcurveto
            81 43 66 41 19 hvcurveto
            -5 -30 rlineto
            -243 -41 -90 -151 -96 hhcurveto
            -40 -45 16 50 -11 hvcurveto
            0 7 -2 7 22 26 15 31 5 vhcurveto
            31 6 -22 15 -22 hhcurveto
            -13 -34 -6 -43 -7 hvcurveto
            -75 -13 41 -60 88 hhcurveto
            136 148 198 296 50 hvcurveto
            -73 110 rmoveto
            -138 -23 -48 -99 -89 hhcurveto
            -113 31 190 95 16 hvcurveto
            12 72 11 63 25 53 rrcurveto
            51 26 39 50 57 hhcurveto
            59 20 -73 -89 -3 hvcurveto
            -1 -34 -8 -76 -11 -65 rrcurveto
            endchar
          </CharString>
          <CharString index="89">
            -45 -7 36 -36 50 hhcurveto
            63 50 57 57 34 hvcurveto
            247 427 rlineto
            63 37 51 1 16 hhcurveto
            return
          </CharString>
          <CharString index="90">
            893 1002 rmoveto
            34 6 -17 30 -31 hhcurveto
            -35 -23 -26 -26 -4 hvcurveto
            -27 -4 13 -26 35 hhcurveto
            7 6 1 1 6 hvcurveto
            -20 -27 -33 -19 -35 -4 8 48 rcurveline
            return
          </CharString>
          <CharString index="91">
            174 callgsubr
            -5 44 callsubr
            return
          </CharString>
          <CharString index="92">
            28 25 4 hvcurveto
            return
          </CharString>
          <CharString index="93">
            -60 callsubr
            24 hlineto
            return
          </CharString>
          <CharString index="94">
            -95 callgsubr
            106 338 26 callsubr
            4 -4 5 hhcurveto
            hintmask 0001000100000000
            6 5 4 6 hvcurveto
            hintmask 0001000001100000
            28 callsubr
            hintmask 0000000000010000
            -25 callgsubr
          </CharString>
          <CharString index="95">
            2 -1 2 -1 2 vhcurveto
            -53 64 -35 78 -16 85 rrcurveto
            5 -1 -4 3 -5 hhcurveto
            -2 hlineto
            -5 -5 -4 -6 hvcurveto
            6 -81 18 -78 32 -71 -55 -71 -45 -77 -32 -81 rrcurveto
            -1 -1 0 -2 -1 vvcurveto
            -6 5 -4 5 vhcurveto
            2 hlineto
            4 3 2 3 2 hvcurveto
            44 86 62 78 74 65 rrcurveto
            2 2 2 3 3 vvcurveto
            return
          </CharString>
          <CharString index="96">
            306 50 callsubr
            410 86 34 22 hstemhm
            184 63 -18 63 72 63 hintmask 00010100
            505 886 rmoveto
            45 7 -25 52 -56 hhcurveto
            -95 -85 -148 -136 -22 hvcurveto
            hintmask 11001010
            -45 -268 rlineto
            -79 102 callgsubr
            79 hlineto
            -54 -324 rlineto
            -51 callgsubr
            -74 0 11 36 6 hvcurveto
            54 322 rlineto
            114 101 callsubr
            -117 hlineto
            hintmask 00110110
            45 271 rlineto
            90 15 56 169 64 hhcurveto
            29 15 -23 -11 5 hvcurveto
            -12 74 callsubr
            endchar
          </CharString>
          <CharString index="97">
            -183 -201 -210 -292 -49 hvcurveto
            -295 -49 133 -208 181 hhcurveto
            193 105 228 137 23 hvcurveto
            return
          </CharString>
          <CharString index="98">
            -89 callgsubr
            -29 142 rmoveto
            3 -23 callgsubr
            -24 146 callsubr
            2 17 -9 11 -13 2 rrcurveto
            140 callsubr
            -16 callsubr
            52 callsubr
          </CharString>
          <CharString index="99">
            801 478 rmoveto
            295 49 -125 210 -172 hhcurveto
            -176 -193 -213 -292 -48 hvcurveto
            -46 -272 105 -196 151 -29 -36 -29 -29 -37 -6 -36 78 callgsubr
            17 callsubr
            13 18 17 16 7 6 9 7 9 6 175 1 192 208 49 291 rrcurveto
            -100 19 rmoveto
            -350 -58 -146 -144 -107 hhcurveto
            -108 -98 144 350 58 hvcurveto
            350 58 155 111 93 hhcurveto
            95 116 -113 -348 -58 hvcurveto
            return
          </CharString>
          <CharString index="100">
            46 callsubr
            194 hmoveto
            -63 callgsubr
            endchar
          </CharString>
          <CharString index="101">
            hlineto
            -71 callsubr
            return
          </CharString>
          <CharString index="102">
            754 rmoveto
            3 21 -8 19 -16 11 rrcurveto
            12 -19 -24 134 callgsubr
            hintmask 0101000010000000
            3 17 -10 11 -13 -65 callsubr
            hintmask 0000000101000000
            -24 callsubr
            -17 -10 -9 -6 rrcurveto
            hintmask 1001001000000000
            -16 callsubr
            hintmask 1000100100000000
            37 callsubr
            rlineto
            hintmask 0000000010000000
            59 callsubr
            hintmask 0000000001000000
            -25 callgsubr
          </CharString>
          <CharString index="103">
            rmoveto
            3 -23 callgsubr
            -24 4 -29 hhcurveto
            return
          </CharString>
          <CharString index="104">
            -4 callsubr
            hintmask 0000100000000000
            -82 callsubr
            hintmask 0001010000100000
            3 17 -10 11 -13 -65 callsubr
            hintmask 0000000001010000
            -24 callsubr
            -17 -10 -9 -6 rrcurveto
            hintmask 0010010010000000
            -16 callsubr
            hintmask 0010001001000000
            37 callsubr
            rlineto
            hintmask 0000000000100000
            59 callsubr
            hintmask 0000000000010000
            -25 callgsubr
          </CharString>
          <CharString index="105">
            -89 callgsubr
            5 62 32 callsubr
          </CharString>
          <CharString index="106">
            54 -1 25 -23 -5 -31 rrcurveto
            25 callgsubr
            151 callgsubr
            return
          </CharString>
          <CharString index="107">
            174 rmoveto
            -25 hlineto
            -10 -30 -14 -44 -13 -15 rrcurveto
            -8 -8 -66 0 -22 hhcurveto
            -188 hlineto
            240 210 rlineto
            hintmask 00001000
            102 89 48 60 17 101 rrcurveto
            hintmask 01110000
            113 18 -59 100 -136 hhcurveto
            -163 -51 -160 -99 -16 hvcurveto
            -19 -3 7 -41 39 hhcurveto
            31 25 23 29 5 hvcurveto
            38 6 -29 15 -22 hhcurveto
            -8 -4 -1 -2 -6 hvcurveto
            94 25 36 92 115 hhcurveto
            hintmask 10001000
            105 6 -109 -70 -12 hvcurveto
            -12 -75 -38 -95 -100 -99 -234 -234 rcurveline
            -7 -8 -3 -6 -4 -23 rrcurveto
            371 hlineto
            endchar
          </CharString>
          <CharString index="108">
            32 4 12 22 2 16 rrcurveto
            26 5 -17 16 -23 hhcurveto
            -20 -24 -13 -30 -5 hvcurveto
            return
          </CharString>
          <CharString index="109">
            444 -11 25 217 21 174 22 return
          </CharString>
          <CharString index="110">
            444 -11 22 174 21 217 25 hstem
            59 66 vstem
            451 217 rmoveto
            134 23 -89 97 -115 hhcurveto
            -122 -64 -111 -19 -3 hvcurveto
            -10 -2 8 -2 5 hhcurveto
            9 3 6 8 3 hvcurveto
            103 53 90 0 10 hhcurveto
            50 35 -30 -37 16 hvcurveto
            22 -48 -11 -66 -6 -36 rrcurveto
            -279 hlineto
            -22 -3 0 -21 -3 hvcurveto
            -99 -17 38 -97 125 hhcurveto
            116 109 103 125 21 hvcurveto
            -89 -32 rmoveto
            -149 -31 -88 -25 -34 hhcurveto
            -103 12 135 39 7 hvcurveto
            endchar
          </CharString>
          <CharString index="111">
            292 533 -97 callsubr
            return
          </CharString>
          <CharString index="112">
            hhcurveto
            10 callsubr
            return
          </CharString>
          <CharString index="113">
            -141 20 callgsubr
            return
          </CharString>
          <CharString index="114">
            68 31 callsubr
            return
          </CharString>
          <CharString index="115">
            500 -206 23 190 58 45 23 16 23 247 23 -12 23 return
          </CharString>
          <CharString index="116">
            8 callgsubr
            -6 43 return
          </CharString>
          <CharString index="117">
            -39 -78 -60 callsubr
            return
          </CharString>
          <CharString index="118">
            -13 callgsubr
            -100 hlineto
            116 693 rlineto
            20 3 1 6 -15 hhcurveto
            -11 0 -1 -13 -8 hvcurveto
            -421 -692 -8 -12 0 -2 -5 -30 rlinecurve
            266 hlineto
            hintmask 10010000
            -19 -116 188 callsubr
            41 52 0 42 hhcurveto
            42 53 0 -3 41 197 callsubr
            hintmask 01001100
            19 116 rlineto
            -66 31 rmoveto
            -246 hlineto
            339 565 rlineto
            1 hlineto
            endchar
          </CharString>
          <CharString index="119">
            rmoveto
            17 callsubr
            return
          </CharString>
          <CharString index="120">
            243 122 callgsubr
            -100 hlineto
            109 655 rlineto
            20 3 1 6 -15 hhcurveto
            -11 0 -1 -13 -8 hvcurveto
            -414 -654 -8 -12 0 -2 -5 -30 rlinecurve
            266 hlineto
            -28 -165 188 callsubr
            42 52 0 42 hhcurveto
            42 53 0 -3 40 197 callsubr
            28 165 rlineto
            -66 31 rmoveto
            -246 hlineto
            333 527 rlineto
            1 hlineto
            endchar
          </CharString>
          <CharString index="121">
            917 258 rmoveto
            -25 hlineto
            -148 -50 -26 -79 -168 hhcurveto
            -95 hlineto
            -47 -1 7 33 6 hvcurveto
            62 375 rlineto
            85 hlineto
            94 4 -33 -84 149 callgsubr
            -14 -33 -94 hhcurveto
            return
          </CharString>
          <CharString index="122">
            hvcurveto
            24 callsubr
            return
          </CharString>
          <CharString index="123">
            728 rmoveto
            -243 hlineto
            -122 1 13 19 -1 hvcurveto
            -25 hlineto
            -68 -206 rlineto
            25 hlineto
            6 16 20 63 15 12 rrcurveto
            6 8 78 0 13 hhcurveto
            221 hlineto
            -159 -244 -153 -236 -55 -227 -17 -99 rlinecurve
            -18 -3 -7 -43 46 hhcurveto
            46 7 45 10 2 hvcurveto
            14 86 2 11 20 111 22 85 rlinecurve
            35 138 40 84 27 41 194 298 rcurveline
            7 11 1 2 3 22 rrcurveto
            endchar
          </CharString>
          <CharString index="124">
            -66 callsubr
            3 20 return
          </CharString>
          <CharString index="125">
            -66 callgsubr
            114 3 return
          </CharString>
          <CharString index="126">
            rmoveto
            143 24 -64 53 -77 hhcurveto
            -69 -89 -44 -152 -25 hvcurveto
            22 hlineto
            127 21 76 34 57 hhcurveto
            59 64 -33 -128 -21 hvcurveto
            endchar
          </CharString>
          <CharString index="127">
            48 callgsubr
            113 75 -27 52 0 52 return
          </CharString>
          <CharString index="128">
            rmoveto
            -45 -7 -31 -20 -43 hhcurveto
            -42 -24 19 46 7 hvcurveto
            45 8 30 20 43 hhcurveto
            42 25 -19 -46 -8 hvcurveto
            26 1 rmoveto
            46 8 -34 41 -54 hhcurveto
            -58 -46 -43 -44 -8 hvcurveto
            -51 -8 38 -38 51 hhcurveto
            56 47 82 callsubr
          </CharString>
          <CharString index="129">
            27 4 -18 26 -30 hhcurveto
            -34 -25 -28 -25 -4 hvcurveto
            -27 -5 40 callsubr
            34 25 -15 callsubr
            return
          </CharString>
          <CharString index="130">
            778 -22 26 954 25 return
          </CharString>
          <CharString index="131">
            -24 -4 12 -24 32 hhcurveto
            return
          </CharString>
          <CharString index="132">
            -41 -3 -11 -30 -2 -13 rrcurveto
            -26 -5 15 -20 28 hhcurveto
            138 callsubr
            return
          </CharString>
          <CharString index="133">
            9 callgsubr
            hintmask 0000101000100000
            3 17 -9 11 -14 -65 callsubr
            hintmask 0001001001010000
            -58 callgsubr
            return
          </CharString>
          <CharString index="134">
            29 27 hhcurveto
            11 7 -6 -6 9 hvcurveto
            endchar
          </CharString>
          <CharString index="135">
            3 19 6 28 28 22 43 20 rlinecurve
            return
          </CharString>
          <CharString index="136">
            51 304 290 481 113 callgsubr
            return
          </CharString>
          <CharString index="137">
            -95 callgsubr
            101 305 rmoveto
            -14 15 rlineto
            hintmask 00010000
            -19 -29 152 callsubr
            hintmask 00001000
            -60 -51 39 -62 hhcurveto
            -56 -31 -34 -35 -36 hvcurveto
            hintmask 00010000
            14 -15 rlineto
            hintmask 00001000
            23 27 28 16 33 hhcurveto
            hintmask 00010000
            46 callgsubr
          </CharString>
          <CharString index="138">
            1029 -95 callgsubr
            return
          </CharString>
          <CharString index="139">
            -15 callgsubr
            -10 21 27 callsubr
          </CharString>
          <CharString index="140">
            -77 callsubr
            -24 hlineto
            return
          </CharString>
          <CharString index="141">
            -95 callgsubr
            40 238 -15 callgsubr
            return
          </CharString>
          <CharString index="142">
            -293 -21 174 95 return
          </CharString>
          <CharString index="143">
            -95 callgsubr
            106 338 rmoveto
            3 21 -7 19 -17 11 rrcurveto
            12 -19 -24 4 -29 hhcurveto
            return
          </CharString>
          <CharString index="144">
            6 5 4 6 hvcurveto
            3 19 return
          </CharString>
          <CharString index="145">
            rlineto
            -36 -6 -5 -12 -90 hhcurveto
            -32 102 callgsubr
            3 36 87 0 40 hhcurveto
            40 87 71 callsubr
            endchar
          </CharString>
          <CharString index="146">
            444 -203 22 hstemhm
            216 69 -8 69 hintmask 01000000
            346 -126 rmoveto
            150 callsubr
            10 60 rcurveline
            -69 hlineto
            -13 -76 rlineto
            hintmask 10100000
            -1 callsubr
            rrcurveto
            endchar
          </CharString>
          <CharString index="147">
            19 -26 30 hhcurveto
            return
          </CharString>
          <CharString index="148">
            -13 callgsubr
            -32 hlineto
            -90 -1 11 37 6 hvcurveto
            140 839 rlineto
            24 4 0 2 -23 hhcurveto
            -42 -33 -69 -50 -95 129 callsubr
            59 47 19 20 31 hvcurveto
            -130 -781 38 callsubr
          </CharString>
          <CharString index="149">
            1012 rmoveto
            10 -1 -7 7 -9 hhcurveto
            hintmask 11000000
            -6 -1 -19 -4 -9 -41 -10 -25 rlinecurve
            -89 -223 -471 -1186 -6 -18 -13 -21 -3 -18 rlinecurve
            -11 -1 8 -8 11 hhcurveto
            2 hlineto
            23 4 12 49 9 27 472 1187 rcurveline
            89 224 7 15 8 19 3 14 rlinecurve
            endchar
          </CharString>
          <CharString index="150">
            -115 12 callsubr
            return
          </CharString>
          <CharString index="151">
            -33 -3 -19 rcurveline
            95 callgsubr
            return
          </CharString>
          <CharString index="152">
            725 rmoveto
            -65 callgsubr
            return
          </CharString>
          <CharString index="153">
            867 rmoveto
            -63 callgsubr
            return
          </CharString>
          <CharString index="154">
            -77 callsubr
            -23 -29 0 9 -11 hvcurveto
            -12 9 4 20 2 17 return
          </CharString>
          <CharString index="155">
            750 -22 31 921 31 return
          </CharString>
          <CharString index="156">
            500 -11 25 412 22 return
          </CharString>
          <CharString index="157">
            0 76 callsubr
            return
          </CharString>
          <CharString index="158">
            4 -4 5 hhcurveto
            return
          </CharString>
          <CharString index="159">
            37 callsubr
            5 28 28 22 43 20 rlinecurve
            20 8 14 16 4 19 rrcurveto
            endchar
          </CharString>
          <CharString index="160">
            28 168 rlineto
            -7 4 33 -54 76 hhcurveto
            119 121 98 129 21 hvcurveto
            -83 hmoveto
            -121 -20 -84 -84 -74 hhcurveto
            -40 -35 20 41 -20 hvcurveto
            -10 21 0 1 3 20 37 223 rcurveline
            51 38 54 29 51 hhcurveto
            73 46 -88 -113 -19 hvcurveto
            endchar
          </CharString>
          <CharString index="161">
            500 -11 216 callgsubr
            return
          </CharString>
          <CharString index="162">
            -85 hlineto
            68 413 rlineto
            33 6 3 7 47 hhcurveto
            95 hlineto
            142 10 -58 -136 -6 hvcurveto
            25 hlineto
            9 225 rlineto
            -560 102 callgsubr
            63 hlineto
            26 -1 -349 -829 rlineto
            -55 -23 -45 -14 -49 129 callsubr
            1 21 41 2 40 hhcurveto
            return
          </CharString>
          <CharString index="163">
            29 5 -21 15 -23 hhcurveto
            -23 -25 -15 -29 -5 99 callgsubr
            return
          </CharString>
          <CharString index="164">
            -46 -8 40 -44 64 hhcurveto
            return
          </CharString>
          <CharString index="165">
            -73 callsubr
            endchar
          </CharString>
          <CharString index="166">
            6 28 27 22 44 20 rrcurveto
            return
          </CharString>
          <CharString index="167">
            147 callsubr
            79 callsubr
            4 11 77 hhcurveto
            24 101 callsubr
            return
          </CharString>
          <CharString index="168">
            -140 -839 -88 callsubr
            3 38 68 0 39 hhcurveto
            39 67 0 -3 36 hvcurveto
            return
          </CharString>
          <CharString index="169">
            119 callsubr
            29 41 21 91 23 47 85 3 16 rrcurveto
            -44 133 rmoveto
            -237 hlineto
            149 31 88 25 34 hhcurveto
            return
          </CharString>
          <CharString index="170">
            353 124 rmoveto
            9 57 rlineto
            -25 hlineto
            return
          </CharString>
          <CharString index="171">
            -95 callgsubr
            100 305 132 callsubr
            return
          </CharString>
          <CharString index="172">
            160 callsubr
            -33 hlineto
            -95 2 13 35 6 hvcurveto
            return
          </CharString>
          <CharString index="173">
            130 callgsubr
            -22 42 return
          </CharString>
          <CharString index="174">
            hlineto
            -54 -324 rlineto
            -45 -8 -11 0 -67 hhcurveto
            93 callgsubr
            112 3 return
          </CharString>
          <CharString index="175">
            -6 -7 -3 -6 -2 hvcurveto
            -2 -13 rlineto
            -104 -29 -64 -121 -121 hhcurveto
            -39 -31 17 24 -26 hvcurveto
            -70 71 9 116 16 99 rrcurveto
            140 24 68 188 165 hhcurveto
            115 -12 12 -129 -3 -89 rrcurveto
            return
          </CharString>
          <CharString index="176">
            19 161 19 hstemhm
            return
          </CharString>
          <CharString index="177">
            -17 -3 -1 -7 11 hhcurveto
            return
          </CharString>
          <CharString index="178">
            0 -3 34 hvcurveto
            return
          </CharString>
          <CharString index="179">
            186 callgsubr
            2 -1 -2 -12 vhcurveto
            -10 144 callsubr
            18 hvcurveto
            endchar
          </CharString>
          <CharString index="180">
            513 583 -95 callgsubr
            return
          </CharString>
          <CharString index="181">
            -39 0 -43 -8 hvcurveto
            -25 -4 15 -18 25 hhcurveto
            24 23 15 30 5 hvcurveto
            return
          </CharString>
          <CharString index="182">
            hvcurveto
            -77 callsubr
            -21 hlineto
            return
          </CharString>
          <CharString index="183">
            31 369 31 return
          </CharString>
          <CharString index="184">
            94 331 -95 callgsubr
            return
          </CharString>
          <CharString index="185">
            86 22 331 22 438 31 return
          </CharString>
          <CharString index="186">
            82 callgsubr
            rlineto
            36 6 return
          </CharString>
          <CharString index="187">
            143 callgsubr
            89 return
          </CharString>
          <CharString index="188">
            278 99 callsubr
            -31 42 hstemhm
            124 66 -50 20 hintmask 00101100
            255 hmoveto
            -67 callsubr
            149 896 rlineto
            return
          </CharString>
          <CharString index="189">
            40 49 8 hvcurveto
            87 251 -97 callgsubr
          </CharString>
          <CharString index="190">
            -31 94 callgsubr
            return
          </CharString>
          <CharString index="191">
            25 173 66 callgsubr
            return
          </CharString>
          <CharString index="192">
            hvcurveto
            -1 -6 -31 -395 rlineto
            22 hlineto
            return
          </CharString>
          <CharString index="193">
            31 -45 -9 -65 -8 -53 rrcurveto
            return
          </CharString>
          <CharString index="194">
            23 26 28 16 33 hhcurveto
            return
          </CharString>
          <CharString index="195">
            1 hlineto
            -15 -88 rlineto
            return
          </CharString>
          <CharString index="196">
            12 callsubr
            13 18 17 16 19 18 22 15 23 11 94 -3 rcurveline
            -77 callsubr
            return
          </CharString>
          <CharString index="197">
            95 568 63 6 60 47 10 61 rlinecurve
            return
          </CharString>
          <CharString index="198">
            173 533 -89 callgsubr
            return
          </CharString>
          <CharString index="199">
            764 251 rmoveto
            2 10 -6 9 -11 1 rrcurveto
            -625 hlineto
            -13 -12 -7 -13 -2 hvcurveto
            -13 -2 10 -7 14 hhcurveto
            618 hlineto
            15 9 5 15 3 hvcurveto
            return
          </CharString>
          <CharString index="200">
            88 58 136 58 hstem
            324 282 rmoveto
            10 58 rlineto
            -266 hlineto
            -10 -58 rlineto
            234 -194 rmoveto
            9 58 rlineto
            -266 hlineto
            -9 -58 rlineto
            endchar
          </CharString>
          <CharString index="201">
            736 -22 54 callgsubr
            return
          </CharString>
          <CharString index="202">
            103 callsubr
            -6 -1 return
          </CharString>
          <CharString index="203">
            rmoveto
            4 -23 callgsubr
            -25 4 -29 hhcurveto
            hintmask 0000000100000000
            -82 callsubr
            return
          </CharString>
          <CharString index="204">
            -4 callsubr
            hintmask 0000010000000000
            -82 callsubr
            return
          </CharString>
          <CharString index="205">
            -5 -5 -1 -1 -5 hvcurveto
            -10 -2 -7 -8 -1 -9 rrcurveto
            -13 -2 7 -8 18 hhcurveto
            return
          </CharString>
          <CharString index="206">
            190 callgsubr
            899 31 return
          </CharString>
          <CharString index="207">
            0 165 callgsubr
            return
          </CharString>
          <CharString index="208">
            hlineto
            -77 callsubr
            return
          </CharString>
          <CharString index="209">
            196 callgsubr
            hintmask 0010100000000000
            155 callgsubr
            return
          </CharString>
          <CharString index="210">
            -33 -3 -19 rcurveline
            return
          </CharString>
          <CharString index="211">
            -22 28 486 28 57 22 161 92 67 25 hstem
            return
          </CharString>
          <CharString index="212">
            174 callsubr
            825 31 43 31 return
          </CharString>
          <CharString index="213">
            31 389 22 488 31 -31 42 return
          </CharString>
          <CharString index="214">
            -143 -24 64 -53 77 hhcurveto
            69 89 44 152 25 hvcurveto
            -29 142 -4 callsubr
            return
          </CharString>
          <CharString index="215">
            54 callgsubr
            150 callgsubr
            return
          </CharString>
          <CharString index="216">
            128 callgsubr
            137 callgsubr
            return
          </CharString>
          <CharString index="217">
            750 0 210 callsubr
            return
          </CharString>
          <CharString index="218">
            158 161 callsubr
            return
          </CharString>
          <CharString index="219">
            rlineto
            70 callsubr
            return
          </CharString>
          <CharString index="220">
            rmoveto
            30 5 -18 33 -37 -3 -3 -1 -3 hhcurveto
            -31 -4 -28 -25 -5 -31 rrcurveto
            -30 -5 18 -33 37 hhcurveto
            34 34 27 34 5 hvcurveto
            return
          </CharString>
          <CharString index="221">
            50 117 50 -44 44 95 50 69 44 hintmask 11110010
            return
          </CharString>
          <CharString index="222">
            hstemhm
            80 callsubr
            return
          </CharString>
          <CharString index="223">
            -1 51 callsubr
            11 return
          </CharString>
          <CharString index="224">
            hlineto
            -188 -572 rlineto
            -2 -3 -2 -10 0 vvcurveto
            -11 -2 7 -9 11 hhcurveto
            16 4 12 16 6 hvcurveto
            190 577 rlineto
            return
          </CharString>
          <CharString index="225">
            -41 callsubr
            61 -21 return
          </CharString>
          <CharString index="226">
            123 callsubr
            43 return
          </CharString>
          <CharString index="227">
            6 6 1 6 hhcurveto
            355 hlineto
            14 13 6 14 3 hvcurveto
            endchar
          </CharString>
          <CharString index="228">
            0 1120 69 callgsubr
            return
          </CharString>
          <CharString index="229">
            -58 callgsubr
            4 -4 5 hhcurveto
            return
          </CharString>
          <CharString index="230">
            57 callgsubr
            145 callsubr
            return
          </CharString>
          <CharString index="231">
            rmoveto
            12 2 -9 8 -15 hhcurveto
            -350 hlineto
            -6 -8 1 -7 hhcurveto
            return
          </CharString>
          <CharString index="232">
            190 callgsubr
            369 31 return
          </CharString>
          <CharString index="233">
            111 19 3 hvcurveto
            -44 133 rmoveto
            return
          </CharString>
          <CharString index="234">
            69 11 25 52 25 -16 25 return
          </CharString>
          <CharString index="235">
            224 callsubr
            -31 31 return
          </CharString>
          <CharString index="236">
            hhcurveto
            -87 callgsubr
            return
          </CharString>
          <CharString index="237">
            -54 -9 rlineto
            7 -11 -26 13 -38 hhcurveto
            -118 -116 -133 -156 -26 hvcurveto
            201 callgsubr
            return
          </CharString>
          <CharString index="238">
            28 159 112 -56 25 446 101 126 25 hstemhm
            return
          </CharString>
          <CharString index="239">
            rmoveto
            -13 15 rlineto
            return
          </CharString>
          <CharString index="240">
            10 225 rlineto
            return
          </CharString>
          <CharString index="241">
            140 callsubr
            rrcurveto
            return
          </CharString>
          <CharString index="242">
            31 callsubr
            endchar
          </CharString>
          <CharString index="243">
            -13 callgsubr
            -70 -7 7 49 9 hvcurveto
            return
          </CharString>
          <CharString index="244">
            22 hstemhm
            28 66 -61 66 20 66 -12 66 return
          </CharString>
          <CharString index="245">
            26 23 17 30 5 hvcurveto
            return
          </CharString>
          <CharString index="246">
            23 27 27 16 33 hhcurveto
            return
          </CharString>
          <CharString index="247">
            11 14 22 7 23 hhcurveto
            45 5 -13 0 hvcurveto
            6 -6 0 -10 -3 -19 -2 -11 -17 -10 -9 -6 return
          </CharString>
          <CharString index="248">
            -66 callgsubr
            112 3 rlineto
            return
          </CharString>
          <CharString index="249">
            750 88 callgsubr
            return
          </CharString>
          <CharString index="250">
            -56 22 498 22 0 22 362 22 114 22 hstemhm
            182 62 128 62 0 25 return
          </CharString>
          <CharString index="251">
            -58 -34 -55 -47 -42 -6 -5 -1 -1 -1 -4 rrcurveto
            -6 -1 3 -4 5 hhcurveto
            11 83 71 104 return
          </CharString>
          <CharString index="252">
            -66 callsubr
            7 40 return
          </CharString>
          <CharString index="253">
            4 -29 hhcurveto
            -82 callsubr
            return
          </CharString>
          <CharString index="254">
            hmoveto
            -47 callgsubr
            return
          </CharString>
          <CharString index="255">
            22 -22 42 389 22 488 42 hstemhm
            70 83 return
          </CharString>
          <CharString index="256">
            -15 -29 -5 85 callsubr
            return
          </CharString>
          <CharString index="257">
            7 43 -33 21 -45 7 return
          </CharString>
          <CharString index="258">
            0 -3 35 hvcurveto
            5 31 return
          </CharString>
          <CharString index="259">
            -17 -20 -42 hhcurveto
            return
          </CharString>
          <CharString index="260">
            102 -100 102 -45 112 -102 102 -69 102 -33 102 -69 103 -34 92 hintmask 0000000000100000
            return
          </CharString>
          <CharString index="261">
            557 216 rmoveto
            127 21 -80 99 -112 hhcurveto
            -78 -50 -44 -22 -23 hvcurveto
            return
          </CharString>
          <CharString index="262">
            108 callsubr
            17 25 return
          </CharString>
          <CharString index="263">
            -19 0 -20 -3 hvcurveto
            -20 -4 19 0 14 hhcurveto
            return
          </CharString>
          <CharString index="264">
            203 callgsubr
            262 30 99 88 return
          </CharString>
          <CharString index="265">
            722 0 225 callgsubr
            return
          </CharString>
          <CharString index="266">
            611 0 34 896 31 return
          </CharString>
          <CharString index="267">
            151 callsubr
            rlineto
            return
          </CharString>
          <CharString index="268">
            80 callgsubr
            hstemhm
            return
          </CharString>
          <CharString index="269">
            hstemhm
            38 66 20 66 return
          </CharString>
          <CharString index="270">
            45 -6 45 hstemhm
            return
          </CharString>
          <CharString index="271">
            -507 -21 1556 -20 hstem
            return
          </CharString>
          <CharString index="272">
            500 205 callsubr
            return
          </CharString>
          <CharString index="273">
            hstemhm
            123 69 return
          </CharString>
          <CharString index="274">
            552 404 rmoveto
            17 3 -6 32 -39 hhcurveto
            -20 -45 -6 -41 -49 hvcurveto
            return
          </CharString>
          <CharString index="275">
            202 callgsubr
            59 69 17 66 return
          </CharString>
          <CharString index="276">
            306 -205 22 12 92 479 42 return
          </CharString>
          <CharString index="277">
            31 899 212 callgsubr
            return
          </CharString>
          <CharString index="278">
            136 -504 rlineto
            return
          </CharString>
          <CharString index="279">
            785 179 callsubr
            31 233 31 679 31 return
          </CharString>
          <CharString index="280">
            41 46 3 18 40 hvcurveto
            -73 -436 rlineto
            -38 -6 -37 -5 -36 hhcurveto
            return
          </CharString>
          <CharString index="281">
            750 0 31 return
          </CharString>
          <CharString index="282">
            1 5 -3 5 -6 1 rrcurveto
            -309 hlineto
            -5 -6 1 -5 hhcurveto
            return
          </CharString>
          <CharString index="283">
            -8 -52 78 callgsubr
            return
          </CharString>
          <CharString index="284">
            23 callsubr
            52 -21 return
          </CharString>
          <CharString index="285">
            1028 -1 -21 876 31 45 31 return
          </CharString>
          <CharString index="286">
            35 callsubr
            23 return
          </CharString>
          <CharString index="287">
            694 -21 193 106 hstem
            return
          </CharString>
          <CharString index="288">
            hlineto
            246 1476 rlineto
            return
          </CharString>
          <CharString index="289">
            hstemhm
            -2 84 -5 84 return
          </CharString>
          <CharString index="290">
            222 callgsubr
            147 90 vstem
            return
          </CharString>
          <CharString index="291">
            22 256 22 return
          </CharString>
          <CharString index="292">
            hlineto
            -14 -19 0 -20 -3 hvcurveto
            -20 -3 19 0 15 hhcurveto
            return
          </CharString>
          <CharString index="293">
            -4 -4 -2 hvcurveto
            -4 -10 rlineto
            -7 -2 4 -5 6 hhcurveto
            return
          </CharString>
          <CharString index="294">
            rmoveto
            -39 -7 -55 -73 -48 hhcurveto
            -22 -25 19 38 7 hvcurveto
            return
          </CharString>
          <CharString index="295">
            rlineto
            -36 -6 -4 -11 -74 hhcurveto
            -21 102 callgsubr
            3 return
          </CharString>
          <CharString index="296">
            -11 -1 -10 -2 hvcurveto
            -1 vlineto
            -9 return
          </CharString>
          <CharString index="297" raw="1">
            b5bd1d0b   
          </CharString>
          <CharString index="298">
            -3 -48 callsubr
            return
          </CharString>
          <CharString index="299">
            hlineto
            44 264 rlineto
            return
          </CharString>
          <CharString index="300">
            500 504 -21 return
          </CharString>
          <CharString index="301">
            -506 -21 1555 -20 21 -20 hstemhm
            hintmask 00100000
            return
          </CharString>
          <CharString index="302">
            -43 -7 5 -63 53 hhcurveto
            31 28 24 31 6 hvcurveto
            return
          </CharString>
          <CharString index="303">
            392 219 callgsubr
            return
          </CharString>
          <CharString index="304">
            75 callsubr
            -74 -9 callgsubr
            return
          </CharString>
          <CharString index="305">
            31 5 -20 24 -31 hhcurveto
            -16 -17 -6 -13 -12 hvcurveto
            return
          </CharString>
          <CharString index="306">
            hhcurveto
            4 hlineto
            7 2 3 6 1 6 rrcurveto
            endchar
          </CharString>
          <CharString index="307">
            40 1476 40 hstem
            return
          </CharString>
          <CharString index="308">
            22 48 22 186 22 return
          </CharString>
          <CharString index="309">
            11 213 callgsubr
            return
          </CharString>
          <CharString index="310">
            13 7 6 3 7 8 return
          </CharString>
          <CharString index="311">
            22 172 22 return
          </CharString>
          <CharString index="312">
            -200 106 83 return
          </CharString>
          <CharString index="313">
            223 callgsubr
            72 return
          </CharString>
          <CharString index="314">
            0 170 callsubr
            return
          </CharString>
          <CharString index="315">
            778 -211 47 142 25 955 25 return
          </CharString>
          <CharString index="316">
            hvcurveto
            -294 -49 125 -206 172 hhcurveto
            return
          </CharString>
          <CharString index="317">
            31 453 31 415 31 return
          </CharString>
          <CharString index="318">
            166 callsubr
            123 69 return
          </CharString>
          <CharString index="319">
            24 callsubr
            14 return
          </CharString>
          <CharString index="320">
            -119 3 -5 -31 return
          </CharString>
          <CharString index="321">
            1111 -549 40 return
          </CharString>
          <CharString index="322">
            -31 rlineto
            32 hlineto
            return
          </CharString>
          <CharString index="323">
            0 3 -35 hvcurveto
            return
          </CharString>
          <CharString index="324">
            hstemhm
            38 66 7 100 -87 66 114 100 return
          </CharString>
          <CharString index="325">
            192 callgsubr
            26 25 return
          </CharString>
          <CharString index="326">
            103 callgsubr
            hstemhm
            600 86 0 100 return
          </CharString>
          <CharString index="327">
            25 217 21 174 22 141 -21 return
          </CharString>
          <CharString index="328">
            44 261 rlineto
            7 1 -2 8 -8 hhcurveto
            return
          </CharString>
          <CharString index="329">
            -10 -231 -198 rcurveline
            -165 198 return
          </CharString>
          <CharString index="330">
            9 231 198 rcurveline
            164 -197 return
          </CharString>
          <CharString index="331">
            hstemhm
            283 89 return
          </CharString>
          <CharString index="332">
            hstemhm
            151 86 return
          </CharString>
        <CharString name=".notdef">
          280 endchar
        </CharString>
        <CharString name="A">
          -41 callsubr
          hstemhm
          -106 callgsubr
          endchar
        </CharString>
        <CharString name="AE">
          221 callgsubr
          hstem
          330 83 0 83 0 83 cntrmask 00011100
          14 callsubr
          55 callsubr
          52 callgsubr
          endchar
        </CharString>
        <CharString name="AE.dup">
          221 callgsubr
          hstemhm
          247 83 0 83 77 83 -77 83 124 83 -44 25 19 25 81 25 27 25 hintmask 1100010011100000
          14 callsubr
          hintmask 1110101100010000
          55 callsubr
          hintmask 1101010000100000
          52 callgsubr
          hintmask 0100001000000000
          endchar
        </CharString>
        <CharString name="AEacute">
          221 callgsubr
          138 callgsubr
          247 83 0 83 77 83 -77 83 124 83 -44 25 19 25 81 25 27 25 hintmask 1100000100111000
          14 callsubr
          hintmask 1110001011000100
          55 callsubr
          hintmask 1100010100001000
          52 callgsubr
          hintmask 0100000010000000
          hintmask 0001100000000000
          272 286 -97 callgsubr
        </CharString>
        <CharString name="Aacute">
          -41 callsubr
          71 -49 callsubr
          276 354 -97 callgsubr
        </CharString>
        <CharString name="Abreve">
          -41 callsubr
          50 35 161 -20 hstemhm
          428 184 callsubr
          hintmask 1100100010000000
          718 -13 callgsubr
          -17 hlineto
          -63 -7 9 32 -3 hvcurveto
          -75 901 rlineto
          16 -1 -2 5 -14 hhcurveto
          -14 -5 -3 -18 -7 hvcurveto
          -362 -870 rlineto
          -31 -13 -23 -41 -81 129 callsubr
          1 21 41 2 40 hhcurveto
          114 -3 5 31 -53 1 -24 26 4 28 rlinecurve
          hintmask 1011000100000000
          1 4 0 2 7 15 90 218 rcurveline
          246 hlineto
          21 -249 rlineto
          -6 1 -7 0 vhcurveto
          -32 -6 -62 0 -27 129 callsubr
          3 37 69 0 38 hhcurveto
          -69 353 -33 callgsubr
          hintmask 0000011110000000
          246 406 -89 callgsubr
          endchar
        </CharString>
        <CharString name="Abreveacute">
          -41 callsubr
          50 35 397 -20 hstemhm
          428 184 callsubr
          0 22 hintmask 1100100010000000
          718 -13 callgsubr
          -17 hlineto
          -63 -7 9 32 -3 hvcurveto
          -75 901 rlineto
          16 -1 -2 5 -14 hhcurveto
          -14 -5 -3 -18 -7 hvcurveto
          -362 -870 rlineto
          -31 -13 -23 -41 -81 129 callsubr
          1 21 41 2 40 hhcurveto
          114 -3 5 31 -53 1 -24 26 4 28 rlinecurve
          hintmask 1011000100000000
          1 4 0 2 7 15 90 218 rcurveline
          246 hlineto
          21 -249 rlineto
          -6 1 -7 0 vhcurveto
          -32 -6 -62 0 -27 129 callsubr
          3 37 69 0 38 hhcurveto
          -69 353 -33 callgsubr
          hintmask 0000011110000000
          246 406 -89 callgsubr
          22 184 47 callgsubr
          rlineto
          hintmask 0000000001000000
          158 callgsubr
        </CharString>
        <CharString name="Abrevedotbelow">
          109 callgsubr
          50 35 161 -20 hstemhm
          296 107 25 184 callsubr
          hintmask 0110010000100000
          718 -13 callgsubr
          -17 hlineto
          -63 -7 9 32 -3 hvcurveto
          -75 901 rlineto
          16 -1 -2 5 -14 hhcurveto
          -14 -5 -3 -18 -7 hvcurveto
          -362 -870 rlineto
          -31 -13 -23 -41 -81 129 callsubr
          1 21 41 2 40 hhcurveto
          114 -3 5 31 -53 1 -24 26 4 28 rlinecurve
          hintmask 0101101101100000
          1 4 0 2 7 15 90 218 rcurveline
          246 hlineto
          21 -249 rlineto
          -6 1 -7 0 vhcurveto
          -32 -6 -62 0 -27 129 callsubr
          3 37 69 0 38 hhcurveto
          -69 353 -33 callgsubr
          246 406 -89 callgsubr
          hintmask 1000000010000000
          -325 -1367 -104 callsubr
        </CharString>
        <CharString name="Abrevegrave">
          -41 callsubr
          50 35 161 -20 hstemhm
          428 184 callsubr
          hintmask 1100100010000000
          718 -13 callgsubr
          -17 hlineto
          -63 -7 9 32 -3 hvcurveto
          -75 901 rlineto
          16 -1 -2 5 -14 hhcurveto
          -14 -5 -3 -18 -7 hvcurveto
          -362 -870 rlineto
          -31 -13 -23 -41 -81 129 callsubr
          1 21 41 2 40 hhcurveto
          114 -3 5 31 -53 1 -24 26 4 28 rlinecurve
          hintmask 1011000100000000
          1 4 0 2 7 15 90 218 rcurveline
          246 hlineto
          21 -249 rlineto
          -6 1 -7 0 vhcurveto
          -32 -6 -62 0 -27 129 callsubr
          3 37 69 0 38 hhcurveto
          -69 353 -33 callgsubr
          hintmask 0000011110000000
          246 406 -2 callsubr
        </CharString>
        <CharString name="Abrevehookabove">
          -41 callsubr
          50 35 171 19 113 35 13 19 hstemhm
          428 123 callgsubr
          hintmask 110010000000000000000010
          718 -13 callgsubr
          -17 hlineto
          -63 -7 9 32 -3 hvcurveto
          -75 901 rlineto
          16 -1 -2 5 -14 hhcurveto
          -14 -5 -3 -18 -7 hvcurveto
          -362 -870 rlineto
          -31 -13 -23 -41 -81 129 callsubr
          1 21 41 2 40 hhcurveto
          114 -3 5 31 -53 1 -24 26 4 28 rlinecurve
          hintmask 001100000000100000000000
          1 4 0 2 7 15 90 218 rcurveline
          246 hlineto
          21 -249 rlineto
          hintmask 100100000100001000000000
          -6 1 -7 0 vhcurveto
          -32 -6 -62 0 -27 129 callsubr
          3 37 69 0 38 hhcurveto
          -69 353 -33 callgsubr
          hintmask 000001000100000100000010
          246 406 rmoveto
          -22 hlineto
          -127 -21 -76 -34 -57 hhcurveto
          -59 -64 33 128 21 hvcurveto
          -22 hlineto
          hintmask 000001001000001000011010
          107 callsubr
          hintmask 000000000010000000000000
          -47 -47 -25 -41 -7 hvcurveto
          hintmask 000000000001000000000000
          -19 -3 12 -11 16 hhcurveto
          hintmask 000000010000001000000000
          15 16 11 18 3 hvcurveto
          hintmask 000000000000100000000000
          2 17 -9 11 -13 2 rrcurveto
          hintmask 000000011000010000011000
          134 callsubr
          hintmask 000000100000100001000000
          174 callgsubr
          -5 103 callsubr
          hintmask 000000000000000100000000
          95 callgsubr
          hintmask 000000110000000010100100
          52 callsubr
        </CharString>
        <CharString name="Abrevetilde">
          -41 callsubr
          50 35 221 163 callsubr
          428 201 callsubr
          hintmask 1100100000100000
          718 -13 callgsubr
          -17 hlineto
          -63 -7 9 32 -3 hvcurveto
          -75 901 rlineto
          16 -1 -2 5 -14 hhcurveto
          -14 -5 -3 -18 -7 hvcurveto
          -362 -870 rlineto
          -31 -13 -23 -41 -81 129 callsubr
          1 21 41 2 40 hhcurveto
          114 -3 5 31 -53 1 -24 26 4 28 rlinecurve
          hintmask 1011000011000000
          1 4 0 2 7 15 90 218 rcurveline
          246 hlineto
          21 -249 rlineto
          -6 1 -7 0 vhcurveto
          -32 -6 -62 0 -27 129 callsubr
          3 37 69 0 38 hhcurveto
          -69 353 -33 callgsubr
          hintmask 0000010110100000
          246 406 -89 callgsubr
          66 129 132 callsubr
          hintmask 0000001000000000
          139 callgsubr
          hintmask 0000000101000000
          -42 callsubr
          hintmask 0000001000000000
          15 -15 rlineto
          hintmask 0000000101000000
          139 callsubr
          hintmask 0000001000000000
          21 callgsubr
        </CharString>
        <CharString name="Acaron">
          750 0 31 41 31 -27 31 218 31 638 -20 61 -49 callsubr
          258 381 -63 callsubr
        </CharString>
        <CharString name="Acircumflex">
          750 0 31 41 31 -27 31 218 31 638 -20 61 -49 callsubr
          230 215 -46 callsubr
        </CharString>
        <CharString name="Acircumflexacute">
          118 callsubr
          412 -20 hstemhm
          -106 callgsubr
          hintmask 00000110
          230 215 -95 callgsubr
          56 360 rmoveto
          23 16 -11 -30 callsubr
        </CharString>
        <CharString name="Acircumflexdotbelow">
          109 callgsubr
          61 132 callgsubr
          hstemhm
          296 107 hintmask 0110010000000000
          718 -13 callgsubr
          -17 hlineto
          -63 -7 9 32 -3 hvcurveto
          -75 901 rlineto
          16 -1 -2 5 -14 hhcurveto
          -14 -5 -3 -18 -7 hvcurveto
          -362 -870 rlineto
          -31 -13 -23 -41 -81 129 callsubr
          1 21 41 2 40 hhcurveto
          114 -3 5 31 -53 1 -24 26 4 28 rlinecurve
          hintmask 0101101100000000
          1 4 0 2 7 15 90 218 rcurveline
          246 hlineto
          21 -249 rlineto
          -6 1 -7 0 vhcurveto
          -32 -6 -62 0 -27 129 callsubr
          3 37 69 0 38 hhcurveto
          -69 353 -33 callgsubr
          230 215 -95 callgsubr
          hintmask 1000000010000000
          -285 -1161 -104 callsubr
        </CharString>
        <CharString name="Acircumflexgrave">
          750 0 31 41 31 -27 31 218 31 638 -20 61 -49 callsubr
          230 215 12 callgsubr
        </CharString>
        <CharString name="Acircumflexhookabove">
          118 callsubr
          206 69 callsubr
          600 9 callsubr
          hintmask 1100100000000100
          718 -13 callgsubr
          -17 hlineto
          -63 -7 9 32 -3 hvcurveto
          -75 901 rlineto
          16 -1 -2 5 -14 hhcurveto
          -14 -5 -3 -18 -7 hvcurveto
          -362 -870 rlineto
          -31 -13 -23 -41 -81 129 callsubr
          1 21 41 2 40 hhcurveto
          114 -3 5 31 -53 1 -24 26 4 28 rlinecurve
          hintmask 1011000000000000
          1 4 0 2 7 15 90 218 rcurveline
          246 hlineto
          21 -249 rlineto
          -6 1 -7 0 vhcurveto
          -32 -6 -62 0 -27 129 callsubr
          3 37 69 0 38 hhcurveto
          -69 353 -33 callgsubr
          hintmask 0000010100010000
          230 215 36 callsubr
          hintmask 0000000010000000
          -82 callsubr
          hintmask 0000000101000010
          3 17 -9 11 -14 -65 callsubr
          hintmask 0000000000000101
          -24 callsubr
          -17 -10 -9 -6 rrcurveto
          hintmask 0000001001001000
          83 callsubr
          hintmask 0000001000100100
          37 callsubr
          rlineto
          hintmask 0000000000000010
          59 callsubr
          hintmask 0000000000000001
          -25 callgsubr
        </CharString>
        <CharString name="Acircumflextilde">
          118 callsubr
          236 163 callsubr
          -106 callgsubr
          hintmask 00000101
          230 215 64 callsubr
          hintmask 00000010
          139 callgsubr
          hintmask 00000001
          -42 callsubr
          hintmask 00000010
          15 -15 rlineto
          hintmask 00000001
          139 callsubr
          hintmask 00000010
          21 callgsubr
        </CharString>
        <CharString name="Adblgrave">
          -41 callsubr
          71 -21 hstemhm
          -106 callgsubr
          hintmask 00000100
          61 232 -72 callgsubr
        </CharString>
        <CharString name="Adieresis">
          -41 callsubr
          40 100 hstemhm
          405 100 93 100 -106 callgsubr
          hintmask 00000111
          23 250 -87 callsubr
        </CharString>
        <CharString name="Adotbelow">
          109 callgsubr
          hstemhm
          296 107 hintmask 01100100
          718 -13 callgsubr
          -17 hlineto
          -63 -7 9 32 -3 hvcurveto
          -75 901 rlineto
          16 -1 -2 5 -14 hhcurveto
          -14 -5 -3 -18 -7 hvcurveto
          -362 -870 rlineto
          -31 -13 -23 -41 -81 129 callsubr
          1 21 41 2 40 hhcurveto
          114 -3 5 31 -53 1 -24 26 4 28 rlinecurve
          hintmask 01011000
          1 4 0 2 7 15 90 218 rcurveline
          246 hlineto
          21 -249 rlineto
          -6 1 -7 0 vhcurveto
          -32 -6 -62 0 -27 129 callsubr
          3 37 69 0 38 hhcurveto
          -69 353 -33 callgsubr
          hintmask 10000010
          -79 -961 -104 callsubr
        </CharString>
        <CharString name="Agrave">
          -41 callsubr
          71 -49 callsubr
          164 232 -73 callgsubr
        </CharString>
        <CharString name="Ahookabove">
          -41 callsubr
          72 69 callsubr
          473 59 -20 26 callgsubr
          hintmask 1100100000000000
          718 -13 callgsubr
          -17 hlineto
          -63 -7 9 32 -3 hvcurveto
          -75 901 rlineto
          16 -1 -2 5 -14 hhcurveto
          -14 -5 -3 -18 -7 hvcurveto
          -362 -870 rlineto
          -31 -13 -23 -41 -81 129 callsubr
          1 21 41 2 40 hhcurveto
          114 -3 5 31 -53 1 -24 26 4 28 rlinecurve
          hintmask 1011000000000000
          1 4 0 2 7 15 90 218 rcurveline
          246 hlineto
          21 -249 rlineto
          -6 1 -7 0 vhcurveto
          -32 -6 -62 0 -27 129 callsubr
          3 37 69 0 38 hhcurveto
          -69 353 -33 callgsubr
          hintmask 0000001000100000
          185 364 96 callsubr
          hintmask 0000001010001000
          3 17 -9 11 -14 -65 callsubr
          hintmask 0000010010010100
          -58 callgsubr
          5 -4 5 hhcurveto
          hintmask 0000010001000000
          152 callgsubr
          hintmask 0000010000011000
          28 callsubr
          hintmask 0000000000000100
          -25 callgsubr
        </CharString>
        <CharString name="Alpha">
          -41 callsubr
          hstemhm
          -106 callgsubr
          endchar
        </CharString>
        <CharString name="Amacron">
          -41 callsubr
          60 32 hstemhm
          -106 callgsubr
          hintmask 00000100
          245 220 -45 callsubr
        </CharString>
        <CharString name="Aogonek">
          750 -211 47 164 -11 callgsubr
          -27 callgsubr
          endchar
        </CharString>
        <CharString name="Aogonekacute">
          750 -211 47 164 -11 callgsubr
          689 -21 196 -20 -27 callgsubr
          hintmask 00000110
          276 354 -97 callgsubr
        </CharString>
        <CharString name="Aring">
          -46 callgsubr
          23 130 23 hstemhm
          -106 callgsubr
          hintmask 00001100
          143 268 -40 callsubr
          endchar
        </CharString>
        <CharString name="Aringacute">
          -46 callgsubr
          23 130 23 216 -20 hstemhm
          -106 callgsubr
          hintmask 00001110
          143 268 -40 callsubr
          87 251 rmoveto
          23 17 30 callgsubr
          8 -22 272 126 13 7 7 3 6 8 rlinecurve
          endchar
        </CharString>
        <CharString name="Atilde">
          -41 callsubr
          40 163 callsubr
          -106 callgsubr
          hintmask 00000010
          267 269 132 callsubr
          hintmask 00000100
          87 callgsubr
          hintmask 00000010
          -42 callsubr
          hintmask 00000100
          15 -15 rlineto
          hintmask 00000010
          87 callsubr
          hintmask 00000100
          -38 callsubr
        </CharString>
        <CharString name="B">
          -25 callsubr
        </CharString>
        <CharString name="Beta">
          -25 callsubr
        </CharString>
        <CharString name="C">
          211 callgsubr
          hstemhm
          136 103 0 103 380 103 hintmask 10100000
          722 -34 callgsubr
          hintmask 01011000
          -64 callgsubr
          hintmask 10101000
          -10 callsubr
          endchar
        </CharString>
        <CharString name="Cacute">
          211 callgsubr
          62 -62 callgsubr
          58 825 -97 callgsubr
        </CharString>
        <CharString name="Ccaron">
          211 callgsubr
          52 -62 callgsubr
          40 852 -63 callsubr
        </CharString>
        <CharString name="Ccedilla">
          722 -203 22 159 31 334 22 587 31 hstemhm
          136 103 0 103 91 69 220 103 -92 69 hintmask 0111010010000000
          722 -34 callgsubr
          112 callgsubr
          rrcurveto
          61 37 86 102 108 hhcurveto
          164 9 -216 -135 -13 hvcurveto
          -21 -1 -1 -3 14 hhcurveto
          16 1 3 21 3 hvcurveto
          hintmask 0001000100000000
          60 358 rlineto
          17 3 1 7 -11 hhcurveto
          hintmask 1001101010000000
          -7 -1 -1 -13 -8 hvcurveto
          -65 -101 rlineto
          80 -38 -55 35 -75 hhcurveto
          -183 -201 -210 -292 -49 hvcurveto
          -46 -276 114 -200 164 -24 -9 -52 rcurveline
          -1 callsubr
          150 callsubr
          5 36 rcurveline
          hintmask 0010000100000000
          171 25 94 209 21 128 rrcurveto
          endchar
        </CharString>
        <CharString name="Ccircumflex">
          211 callgsubr
          52 -62 callgsubr
          12 686 -46 callsubr
        </CharString>
        <CharString name="Cdotaccent">
          211 callgsubr
          53 106 hstemhm
          136 103 0 103 182 107 91 103 hintmask 10010000
          722 -34 callgsubr
          hintmask 01001010
          -64 callgsubr
          hintmask 10010010
          -10 callsubr
          hintmask 00100100
          -91 746 -104 callsubr
        </CharString>
        <CharString name="Chi">
          -39 callgsubr
        </CharString>
        <CharString name="D">
          764 0 219 callsubr
          hintmask 11010000
          -29 callsubr
          hintmask 11100000
          -18 callgsubr
          endchar
        </CharString>
        <CharString name="Dcaron">
          764 88 callgsubr
          96 callgsubr
          600 86 0 100 hintmask 11000100
          -29 callsubr
          hintmask 11001000
          -18 callgsubr
          hintmask 00110000
          2 722 -63 callsubr
        </CharString>
        <CharString name="Dcroat">
          -37 callsubr
        </CharString>
        <CharString name="Ddotbelow">
          764 91 callgsubr
          hstemhm
          244 107 249 86 0 100 hintmask 01100100
          -29 callsubr
          hintmask 01101000
          -18 callgsubr
          hintmask 10010000
          -335 -620 -104 callsubr
        </CharString>
        <CharString name="Delta">
          833 9 67 918 -20 hstem
          788 9 rmoveto
          3 -1 6 3 vvcurveto
          -185 952 rlineto
          16 -3 -1 5 -16 hhcurveto
          -13 -6 -2 -18 -9 hvcurveto
          -501 -953 rlineto
          -2 -3 -3 -6 -3 vvcurveto
          -9 -2 7 0 16 hhcurveto
          694 hlineto
          16 7 0 9 2 hvcurveto
          -107 67 rmoveto
          -566 hlineto
          414 787 rlineto
          endchar
        </CharString>
        <CharString name="Dlinebelow">
          764 -163 32 131 219 callsubr
          hintmask 01101000
          -29 callsubr
          hintmask 01110000
          -18 callgsubr
          hintmask 10000000
          -210 -636 -45 callsubr
        </CharString>
        <CharString name="E">
          17 callgsubr
          -20 callgsubr
          hintmask 1101100100000000
          -92 callsubr
          hintmask 1111011110000000
          -103 callsubr
          endchar
        </CharString>
        <CharString name="Eacute">
          17 callgsubr
          87 132 callgsubr
          -20 callgsubr
          hintmask 1100011001000000
          -92 callsubr
          hintmask 1110010111100000
          -103 callsubr
          hintmask 0001100000000000
          114 1168 -97 callgsubr
        </CharString>
        <CharString name="Ebreve">
          17 callgsubr
          66 35 161 -20 hstemhm
          212 25 157 22 -21 192 callgsubr
          -23 22 27 25 hintmask 1100010100100000
          -92 callsubr
          hintmask 1110010011101000
          -103 callsubr
          hintmask 0001101000010000
          84 1220 -89 callgsubr
          endchar
        </CharString>
        <CharString name="Ecaron">
          17 callgsubr
          77 132 callgsubr
          -20 callgsubr
          hintmask 1100011001000000
          -92 callsubr
          hintmask 1110010111100000
          -103 callsubr
          hintmask 0001100100000000
          96 1195 -63 callsubr
        </CharString>
        <CharString name="Ecircumflex">
          17 callgsubr
          77 132 callgsubr
          -20 callgsubr
          hintmask 1100011001000000
          -92 callsubr
          hintmask 1110010111100000
          -103 callsubr
          hintmask 0001100000000000
          68 135 callsubr
        </CharString>
        <CharString name="Ecircumflexacute">
          17 callgsubr
          77 -21 412 -20 -20 callgsubr
          hintmask 1100011001000000
          -92 callsubr
          hintmask 1110010111100000
          -103 callsubr
          hintmask 0001100000000000
          7 callsubr
          56 360 rmoveto
          23 16 -11 -30 callsubr
        </CharString>
        <CharString name="Ecircumflexdotbelow">
          681 133 callgsubr
          60 callgsubr
          77 132 callgsubr
          167 callgsubr
          hintmask 0110001010010000
          -92 callsubr
          hintmask 0111111001111000
          -103 callsubr
          7 callsubr
          hintmask 1000000100000000
          -286 -1161 -104 callsubr
        </CharString>
        <CharString name="Ecircumflexgrave">
          17 callgsubr
          77 132 callgsubr
          -20 callgsubr
          hintmask 1100011001000000
          -92 callsubr
          hintmask 1110010111100000
          -103 callsubr
          hintmask 0001100000000000
          68 1029 12 callgsubr
        </CharString>
        <CharString name="Ecircumflexhookabove">
          17 callgsubr
          77 -21 206 19 161 19 49 callgsubr
          0 25 19 25 13 8 callgsubr
          -53 25 22 43 -39 25 hintmask 110000110000000001000000
          -92 callsubr
          hintmask 111000101100000001010000
          -103 callsubr
          hintmask 000101000000010000000000
          68 1029 36 callsubr
          hintmask 000000000010000000000000
          -82 callsubr
          hintmask 000001000001000010000000
          3 17 -9 11 -14 -65 callsubr
          hintmask 000000000000000100100000
          -24 callsubr
          -17 -10 -9 -6 rrcurveto
          hintmask 000010000001001000000000
          83 callsubr
          hintmask 000010000000100100000000
          37 callsubr
          rlineto
          hintmask 000000000000000010000000
          59 callsubr
          hintmask 000000000000000000100000
          -25 callgsubr
        </CharString>
        <CharString name="Ecircumflextilde">
          17 callgsubr
          77 -21 236 45 -6 45 -20 callgsubr
          hintmask 1100001100100000
          -92 callsubr
          hintmask 1110001011110000
          -103 callsubr
          hintmask 0001010000000000
          68 1029 64 callsubr
          hintmask 0000100000000000
          139 callgsubr
          hintmask 0000010000000000
          -42 callsubr
          hintmask 0000100000000000
          15 -15 rlineto
          hintmask 0000010000000000
          139 callsubr
          hintmask 0000100000000000
          21 callgsubr
        </CharString>
        <CharString name="Edblgrave">
          17 callgsubr
          87 -21 -20 callgsubr
          hintmask 1100110010000000
          -92 callsubr
          hintmask 1110101111000000
          -103 callsubr
          hintmask 0001000000000000
          -74 1046 -72 callgsubr
        </CharString>
        <CharString name="Edieresis">
          17 callgsubr
          56 100 hstemhm
          212 25 134 100 -76 89 0 25 19 25 11 100 6 25 26 25 hintmask 1100101000100000
          -92 callsubr
          hintmask 1110100110110000
          -103 callsubr
          hintmask 0001010001000000
          -139 1064 -87 callsubr
        </CharString>
        <CharString name="Edotaccent">
          17 callgsubr
          78 106 49 callgsubr
          -17 107 -90 25 19 25 117 25 26 25 hintmask 1100110001000000
          -92 callsubr
          hintmask 1110100111100000
          -103 callsubr
          hintmask 0001001000000000
          -36 1089 -104 callsubr
        </CharString>
        <CharString name="Edotbelow">
          681 133 callgsubr
          60 callgsubr
          167 callgsubr
          hintmask 0110101001000000
          -92 callsubr
          hintmask 0111100111100000
          -103 callsubr
          hintmask 1000010000000000
          -242 -147 -104 callsubr
        </CharString>
        <CharString name="Egrave">
          17 callgsubr
          87 132 callgsubr
          -20 callgsubr
          hintmask 1100011001000000
          -92 callsubr
          hintmask 1110010111100000
          -103 callsubr
          hintmask 0001100000000000
          2 1046 -73 callgsubr
        </CharString>
        <CharString name="Ehookabove">
          17 callgsubr
          88 19 161 19 49 callgsubr
          -46 59 -20 19 -12 25 -13 19 -19 43 -40 19 10 25 -17 59 -6 43 38 25 26 25 hintmask 110001100000000010000000
          -92 callsubr
          hintmask 111001000100010011000000
          -103 callsubr
          hintmask 000010000001000000000000
          22 1178 rmoveto
          4 -23 callgsubr
          -25 4 -29 hhcurveto
          hintmask 000000010000000000000000
          -82 callsubr
          hintmask 000010001000001000000000
          3 17 -9 11 -14 -65 callsubr
          hintmask 000100001000100100000000
          -58 callgsubr
          5 -4 5 hhcurveto
          hintmask 000100000010000000000000
          152 callgsubr
          hintmask 000100000000101000000000
          28 callsubr
          hintmask 000000000000000100000000
          -25 callgsubr
        </CharString>
        <CharString name="Emacron">
          17 callgsubr
          76 32 -20 callgsubr
          hintmask 1100110010000000
          -92 callsubr
          hintmask 1110101111000000
          -103 callsubr
          hintmask 0001000000000000
          83 1034 -45 callsubr
        </CharString>
        <CharString name="Eng">
          792 -21 22 0 30 -30 31 8 31 860 31 -5 32 hstemhm
          148 89 96 111 -75 111 hintmask 0000010010000000
          772 223 rmoveto
          67 403 24 143 -34 157 -136 49 rlinecurve
          9 -25 -27 5 -27 hhcurveto
          -86 -111 -53 -77 -48 hvcurveto
          hintmask 0101101000000000
          17 103 rlineto
          -193 144 callgsubr
          hhcurveto
          hintmask 0010000100000000
          121 callgsubr
          295 101 callsubr
          hintmask 0101011100000000
          -11 -12 -1 -12 hhcurveto
          -35 -32 5 35 6 hvcurveto
          120 718 5 34 48 53 37 30 rlinecurve
          33 42 49 18 47 hhcurveto
          163 26 -191 -131 -22 hvcurveto
          -68 -409 -11 -63 -15 -69 -46 -54 rlinecurve
          -21 -19 -23 -18 -26 hhcurveto
          -63 -25 53 54 -12 hvcurveto
          -1 6 6 -1 6 hhcurveto
          30 29 24 31 5 hvcurveto
          hintmask 1000000010000000
          29 5 -17 26 -34 hhcurveto
          -34 -26 -22 -42 -7 hvcurveto
          -82 -12 47 -91 92 hhcurveto
          96 81 76 86 35 hvcurveto
          10 27 6 27 4 28 rrcurveto
          endchar
        </CharString>
        <CharString name="Eogonek">
          681 166 callgsubr
          0 47 404 31 367 47 0 31 49 callgsubr
          0 25 19 25 28 89 0 25 26 25 hintmask 0011001100100000
          -92 callsubr
          hintmask 0001100011001000
          25 hlineto
          44 265 rlineto
          -25 hlineto
          -86 -14 -16 -31 -97 hhcurveto
          -90 hlineto
          62 374 rlineto
          33 5 4 7 47 hhcurveto
          129 hlineto
          153 17 -55 -139 -7 hvcurveto
          25 hlineto
          hintmask 0000011000000000
          102 callsubr
          hintmask 1100000000100000
          -87 callgsubr
          415 hlineto
          -55 -34 -34 -35 -8 -52 rrcurveto
          -46 -8 40 -44 64 hhcurveto
          123 callsubr
          36 31 39 24 rrcurveto
          125 hlineto
          hintmask 0000000000010000
          endchar
        </CharString>
        <CharString name="Eogonekacute">
          681 166 callgsubr
          0 47 404 31 367 47 0 31 87 132 callgsubr
          49 callgsubr
          0 25 19 25 28 89 0 25 26 25 hintmask 0011000011001000
          -92 callsubr
          hintmask 0001100000110010
          25 hlineto
          44 265 rlineto
          -25 hlineto
          -86 -14 -16 -31 -97 hhcurveto
          -90 hlineto
          62 374 rlineto
          33 5 4 7 47 hhcurveto
          129 hlineto
          153 17 -55 -139 -7 hvcurveto
          25 hlineto
          hintmask 0000010010000000
          102 callsubr
          hintmask 1100000000001000
          -87 callgsubr
          415 hlineto
          -55 -34 -34 -35 -8 -52 rrcurveto
          -46 -8 40 -44 64 hhcurveto
          123 callsubr
          36 31 39 24 rrcurveto
          125 hlineto
          hintmask 0000000000000100
          hintmask 0000001100000000
          114 1168 -97 callgsubr
        </CharString>
        <CharString name="Epsilon">
          17 callgsubr
          -20 callgsubr
          hintmask 1101100100000000
          -92 callsubr
          hintmask 1111011110000000
          -103 callsubr
          endchar
        </CharString>
        <CharString name="Ereversed">
          17 callgsubr
          hstemhm
          76 25 82 25 90 25 19 25 0 89 152 25 hintmask 1110100110000000
          652 120 callgsubr
          -563 hlineto
          -66 -225 rlineto
          25 hlineto
          139 39 37 55 153 hhcurveto
          129 hlineto
          47 0 -7 -33 -5 hvcurveto
          -62 -374 rlineto
          -90 hlineto
          -97 -6 31 86 14 hvcurveto
          hintmask 1101011000000000
          -25 hlineto
          -44 -265 rlineto
          25 hlineto
          85 14 16 32 97 hhcurveto
          90 hlineto
          -68 -411 rlineto
          -33 -6 -3 -7 -47 hhcurveto
          -133 hlineto
          -172 -11 73 154 1 hvcurveto
          -25 hlineto
          -1 -258 rlineto
          endchar
        </CharString>
        <CharString name="Eta">
          110 callsubr
          hstem
          143 callgsubr
          89 165 89 45 89 vstem
          -98 callgsubr
          endchar
        </CharString>
        <CharString name="Eth">
          -37 callsubr
        </CharString>
        <CharString name="Etilde">
          17 callgsubr
          56 45 -6 45 -20 callgsubr
          hintmask 1100011001000000
          -92 callsubr
          hintmask 1110010111100000
          -103 callsubr
          hintmask 0000100000000000
          105 1083 0 callgsubr
        </CharString>
        <CharString name="Euro">
          627 -22 30 0 30 372 30 82 30 401 30 hstemhm
          192 102 0 102 170 102 hintmask 01111101
          569 -12 rmoveto
          36 218 rlineto
          6 1 -3 4 -6 hhcurveto
          -10 hlineto
          -5 -5 -4 -5 -1 hvcurveto
          -98 -24 -56 -101 -88 hhcurveto
          -71 -34 66 68 -17 hvcurveto
          -21 85 5 91 13 92 rrcurveto
          262 hlineto
          5 5 3 5 2 hvcurveto
          4 12 rlineto
          5 2 -4 5 -6 hhcurveto
          -266 hlineto
          7 41 7 41 rlineto
          286 hlineto
          5 5 3 5 1 hvcurveto
          5 12 rlineto
          5 1 -4 5 -6 hhcurveto
          -287 hlineto
          18 91 25 92 49 84 rrcurveto
          68 40 56 66 71 hhcurveto
          88 22 -101 -98 -9 hvcurveto
          -5 -1 51 callsubr
          10 hlineto
          6 5 4 6 1 hvcurveto
          36 218 rlineto
          6 1 -4 4 -5 hhcurveto
          -3 hlineto
          -4 -3 -2 -2 -2 hvcurveto
          -45 -55 rlineto
          36 -22 -35 23 -47 hhcurveto
          -91 -81 -69 -80 -58 hvcurveto
          -64 -87 -40 -97 -23 -98 rrcurveto
          -48 hlineto
          -5 -4 186 callsubr
          48 hlineto
          -8 -41 -6 -41 rlineto
          -46 hlineto
          -4 -5 186 callsubr
          50 hlineto
          -9 -99 8 -97 34 -87 rrcurveto
          hintmask 10000010
          -80 32 58 -69 90 hhcurveto
          hintmask 01000000
          48 42 23 37 34 hvcurveto
          27 -55 rlineto
          hintmask 10000000
          -3 1 3 -2 3 hhcurveto
          3 hlineto
          6 5 4 6 1 hvcurveto
          endchar
        </CharString>
        <CharString name="F">
          653 0 31 433 31 432 31 hstem
          143 callgsubr
          25 167 25 19 25 163 25 vstem
          732 733 rmoveto
          133 callsubr
          -549 64 callgsubr
          64 385 rlineto
          86 hlineto
          96 5 -32 -85 149 callgsubr
          -15 -33 -96 hhcurveto
          -86 hlineto
          65 392 rlineto
          33 5 4 7 47 hhcurveto
          120 hlineto
          150 15 -56 -138 -7 hvcurveto
          endchar
        </CharString>
        <CharString name="G">
          90 callgsubr
          hstem
          136 103 418 89 vstem
          -100 callgsubr
          endchar
        </CharString>
        <CharString name="Gacute">
          90 callgsubr
          62 132 callgsubr
          hstemhm
          136 103 418 89 hintmask 11100110
          -100 callgsubr
          hintmask 00011000
          1 926 -97 callgsubr
        </CharString>
        <CharString name="Gamma">
          625 0 31 896 31 hstem
          149 89 vstem
          704 733 rmoveto
          133 callsubr
          -521 64 callgsubr
          135 808 rlineto
          33 5 4 7 47 hhcurveto
          103 hlineto
          143 11 -59 -135 -7 hvcurveto
          endchar
        </CharString>
        <CharString name="Gbreve">
          90 callgsubr
          41 35 161 -20 hstemhm
          136 103 207 22 189 89 -22 22 hintmask 1110010100000000
          -100 callgsubr
          hintmask 0001101010000000
          -29 978 -89 callgsubr
          endchar
        </CharString>
        <CharString name="Gcaron">
          90 callgsubr
          52 132 callgsubr
          hstemhm
          136 103 418 89 hintmask 11100110
          -100 callgsubr
          hintmask 00011000
          -17 953 -63 callsubr
        </CharString>
        <CharString name="Gcedilla">
          172 callsubr
          hstem
          136 103 154 20 244 89 vstem
          -100 callgsubr
          -362 -381 -101 callsubr
        </CharString>
        <CharString name="Gcircumflex">
          90 callgsubr
          52 132 callgsubr
          hstemhm
          136 103 418 89 hintmask 11100110
          -100 callgsubr
          hintmask 00011000
          -45 787 -46 callsubr
        </CharString>
        <CharString name="Gcommaaccent">
          172 callsubr
          hstemhm
          136 103 154 20 244 89 hintmask 00111101
          -100 callgsubr
          hintmask 11000010
          -362 -381 -101 callsubr
        </CharString>
        <CharString name="Gdotaccent">
          90 callgsubr
          53 106 hstemhm
          136 103 281 107 30 89 hintmask 11101010
          -100 callgsubr
          hintmask 00010100
          -148 847 -104 callsubr
        </CharString>
        <CharString name="H">
          110 callsubr
          hstem
          143 callgsubr
          89 165 89 45 89 vstem
          -98 callgsubr
          endchar
        </CharString>
        <CharString name="H_uni0303">
          110 callsubr
          53 45 -6 45 115 callsubr
          165 89 45 89 hintmask 1110011110000000
          -98 callgsubr
          hintmask 0000100000000000
          33 1083 0 callgsubr
        </CharString>
        <CharString name="Hbar">
          750 484 31 192 31 192 31 hstemhm
          62 89 -2 89 16 89 -84 89 -65 89 165 89 16 89 -84 89 -65 89 cntrmask 1110000000000000
          hintmask 1110000011000000
          716 147 callsubr
          105 629 rlineto
          103 101 callsubr
          hintmask 1110000000100000
          -103 hlineto
          hintmask 1110000000010000
          24 145 -91 callsubr
          hintmask 1110001000100000
          -24 -145 rlineto
          -299 hlineto
          hintmask 1110000100000000
          24 145 -91 callsubr
          hintmask 1111001000000000
          -24 -145 rlineto
          -103 102 callgsubr
          hintmask 1110110000000000
          103 hlineto
          -105 -629 rlineto
          hintmask 1111000000000000
          -93 callgsubr
          3 36 74 0 38 hhcurveto
          36 callgsubr
          33 callsubr
          hintmask 1110110011000000
          24 callgsubr
          68 406 205 callgsubr
          -68 -406 -82 callgsubr
          -106 515 rmoveto
          -299 hlineto
          32 192 205 callgsubr
          endchar
        </CharString>
        <CharString name="Hbrevebelow">
          750 200 callgsubr
          69 191 callgsubr
          149 89 -21 22 44 89 123 22 20 89 45 89 hintmask 0011110101100000
          -98 callgsubr
          hintmask 1100001010000000
          -199 -49 13 callgsubr
        </CharString>
        <CharString name="Hcircumflex">
          110 callsubr
          74 -21 196 -20 115 callsubr
          165 89 45 89 hintmask 1110011110000000
          -98 callgsubr
          hintmask 0001100000000000
          -4 135 callsubr
        </CharString>
        <CharString name="Hdieresis">
          110 callsubr
          53 100 115 callsubr
          33 100 32 89 -28 100 -27 89 hintmask 1110110101000000
          -98 callgsubr
          hintmask 0001001010000000
          -211 1064 -87 callsubr
        </CharString>
        <CharString name="Hdotbelow">
          750 -200 106 94 191 callgsubr
          143 callgsubr
          89 -76 107 134 89 45 89 hintmask 0111110110000000
          -98 callgsubr
          hintmask 1000001000000000
          -313 -147 -104 callsubr
        </CharString>
        <CharString name="I">
          361 207 callsubr
          vstem
          -100 callsubr
          endchar
        </CharString>
        <CharString name="I_J">
          861 -21 31 -9 103 callgsubr
          hstemhm
          149 89 -22 89 -22 89 cntrmask 00011100
          hintmask 10111100
          967 931 122 callgsubr
          -296 102 callgsubr
          59 hlineto
          37 37 -4 -42 -7 hvcurveto
          -97 -582 -12 -75 -12 -74 -28 -106 -69 -38 rlinecurve
          hintmask 01011100
          -6 -11 -12 -3 -11 hhcurveto
          -60 -36 54 53 -4 hvcurveto
          -1 6 5 -1 6 hhcurveto
          31 28 23 32 5 hvcurveto
          32 5 -19 24 -32 hhcurveto
          -31 -29 -23 -35 -5 hvcurveto
          hintmask 10111100
          -85 -15 46 -95 97 hhcurveto
          96 90 87 90 28 hvcurveto
          8 23 5 24 4 24 9 60 rcurveline
          101 605 rlineto
          36 6 23 3 54 hhcurveto
          -634 -930 rmoveto
          hintmask 01111100
          -77 callsubr
          -33 hlineto
          -46 -28 3 44 7 81 callgsubr
          rlineto
          43 8 30 4 32 hhcurveto
          46 101 callsubr
          -305 102 callgsubr
          33 hlineto
          46 29 -3 -44 -8 hvcurveto
          193 callgsubr
          -43 -7 -31 -4 -32 hhcurveto
          -46 102 callgsubr
          endchar
        </CharString>
        <CharString name="Iacute">
          79 callgsubr
          84 -21 196 -20 115 callsubr
          hintmask 11001100
          -100 callsubr
          hintmask 00110000
          231 1168 -97 callgsubr
        </CharString>
        <CharString name="Ibreve">
          79 callgsubr
          63 35 161 -20 hstemhm
          149 89 -4 22 27 89 140 22 hintmask 11001010
          -100 callsubr
          hintmask 00110101
          201 1220 -89 callgsubr
          endchar
        </CharString>
        <CharString name="Icaron">
          79 callgsubr
          74 -21 196 -20 115 callsubr
          hintmask 11001100
          -100 callsubr
          hintmask 00110000
          213 1195 -63 callsubr
        </CharString>
        <CharString name="Icircumflex">
          79 callgsubr
          74 -21 196 -20 115 callsubr
          hintmask 11001100
          -100 callsubr
          hintmask 00110000
          185 135 callsubr
        </CharString>
        <CharString name="Idblgrave">
          79 callgsubr
          84 -21 115 callsubr
          hintmask 11011000
          -100 callsubr
          hintmask 00100000
          43 1046 -72 callgsubr
        </CharString>
        <CharString name="Idieresis">
          79 callgsubr
          53 100 218 callgsubr
          hintmask 11010100
          -100 callsubr
          hintmask 00101010
          -22 1064 -87 callsubr
        </CharString>
        <CharString name="Idieresisacute">
          79 callgsubr
          53 100 83 132 callgsubr
          218 callgsubr
          hintmask 1100010100000000
          -100 callsubr
          hintmask 0010101010000000
          -22 1064 -97 callsubr
          85 256 rmoveto
          23 17 -70 callsubr
          hintmask 0001000100000000
          -254 -162 8 -22 272 126 13 7 7 3 6 8 rlinecurve
          endchar
        </CharString>
        <CharString name="Idotaccent">
          79 callgsubr
          75 106 115 callsubr
          -64 107 hintmask 11011000
          -100 callsubr
          hintmask 00100100
          82 1089 -104 callsubr
        </CharString>
        <CharString name="Idotbelow">
          361 91 callgsubr
          hstemhm
          102 107 -60 89 45 89 hintmask 01101100
          333 -13 callgsubr
          -26 hlineto
          -79 -1 11 36 6 hvcurveto
          79 callsubr
          5 11 79 hhcurveto
          26 101 callsubr
          -3 -35 -79 0 -39 5 callsubr
          hintmask 00110100
          26 hlineto
          79 1 -22 callgsubr
          hintmask 01001000
          161 callgsubr
          -5 -11 -79 hhcurveto
          -26 102 callgsubr
          3 36 79 0 38 hhcurveto
          39 79 71 callsubr
          hintmask 10010000
          -124 -147 -104 callsubr
        </CharString>
        <CharString name="Igrave">
          79 callgsubr
          84 -21 196 -20 115 callsubr
          hintmask 11001100
          -100 callsubr
          hintmask 00110000
          119 1046 -73 callgsubr
        </CharString>
        <CharString name="Ihookabove">
          79 callgsubr
          85 69 callsubr
          149 89 41 59 -55 89 -54 26 callgsubr
          hintmask 1000110000000000
          333 -13 callgsubr
          -26 hlineto
          -79 -1 -16 callgsubr
          hintmask 0100001000000000
          79 callsubr
          5 11 79 hhcurveto
          26 101 callsubr
          hintmask 0100000000100000
          -3 -35 -79 0 -39 5 callsubr
          26 hlineto
          hintmask 1000101000000000
          156 callgsubr
          -5 -31 rlineto
          3 36 79 0 38 hhcurveto
          39 79 71 callsubr
          hintmask 0001000001000000
          140 1178 9 callgsubr
          hintmask 0001000100010000
          3 17 -9 11 -14 -65 callsubr
          hintmask 0010000100101000
          -58 callgsubr
          5 -4 5 hhcurveto
          hintmask 0010000010000000
          152 callgsubr
          hintmask 0010000000110000
          28 callsubr
          hintmask 0000000000001000
          -25 callgsubr
        </CharString>
        <CharString name="Imacron">
          79 callgsubr
          73 32 115 callsubr
          hintmask 11011000
          -100 callsubr
          hintmask 00100000
          200 1034 -45 callsubr
        </CharString>
        <CharString name="Imacron.alt">
          79 callgsubr
          73 32 115 callsubr
          hintmask 11011000
          -100 callsubr
          hintmask 00100000
          117 1034 115 callgsubr
          -45 0 120 hhcurveto
          endchar
        </CharString>
        <CharString name="Iogonek">
          361 166 callgsubr
          0 47 805 47 0 31 hstemhm
          149 89 -29 89 -15 89 hintmask 11000010
          314 43 callsubr
          12 18 17 16 19 18 22 15 23 11 rrcurveto
          37 41 -1 -2 23 hvcurveto
          -77 callsubr
          -26 hlineto
          hintmask 00110101
          -79 -1 11 36 6 hvcurveto
          79 callsubr
          5 11 79 hhcurveto
          26 hlineto
          hintmask 00001010
          153 callgsubr
          hintmask 00110101
          156 callgsubr
          hintmask 11000000
          -87 callgsubr
          3 36 79 0 38 hhcurveto
          6 hlineto
          -49 -31 -47 -47 -7 -46 78 callgsubr
          endchar
        </CharString>
        <CharString name="Iogonekacute">
          361 166 callgsubr
          0 47 805 47 0 31 138 callgsubr
          149 89 -29 89 -15 89 hintmask 1100000010000000
          314 43 callsubr
          12 18 17 16 19 18 22 15 23 11 rrcurveto
          37 41 -1 -2 23 hvcurveto
          -77 callsubr
          -26 hlineto
          hintmask 0011000101000000
          -79 -1 11 36 6 hvcurveto
          79 callsubr
          5 11 79 hhcurveto
          26 hlineto
          hintmask 0000100010000000
          153 callgsubr
          hintmask 0011000101000000
          156 callgsubr
          hintmask 1100000000000000
          -87 callgsubr
          3 36 79 0 38 hhcurveto
          6 hlineto
          -49 -31 -47 -47 -7 -46 78 callgsubr
          hintmask 0000011000000000
          250 1283 -97 callgsubr
        </CharString>
        <CharString name="Iota">
          361 207 callsubr
          vstem
          -100 callsubr
          endchar
        </CharString>
        <CharString name="Itilde">
          79 callgsubr
          53 45 -6 45 115 callsubr
          hintmask 11001100
          -100 callsubr
          hintmask 00010000
          222 1083 -56 callsubr
        </CharString>
        <CharString name="J">
          148 callgsubr
          hstemhm
          hintmask 11010000
          -57 callsubr
          hintmask 00100000
          105 callgsubr
          endchar
        </CharString>
        <CharString name="J_uni030C.cap">
          513.88889 -22 22 104 112 497 -21 174 95 -53 22 0 31 hstemhm
          733 20 hintmask 11000100
          -57 callsubr
          hintmask 00001000
          105 callgsubr
          133 -63 rmoveto
          hintmask 00000100
          57 9 -16 37 -36 hhcurveto
          -31 -21 -24 -23 -4 hvcurveto
          hintmask 00110010
          72 callsubr
        </CharString>
        <CharString name="Jacute">
          148 callgsubr
          138 callgsubr
          hintmask 11010000
          -57 callsubr
          hintmask 00100000
          105 callgsubr
          hintmask 00001100
          80 238 -97 callgsubr
        </CharString>
        <CharString name="Jcircumflex">
          148 callgsubr
          96 callgsubr
          hintmask 11010000
          -57 callsubr
          hintmask 00100000
          105 callgsubr
          hintmask 00001100
          34 99 -46 callsubr
        </CharString>
        <CharString name="K">
          778 207 callsubr
          192 89 vstem
          -85 callsubr
          endchar
        </CharString>
        <CharString name="Kappa">
          778 207 callsubr
          192 89 vstem
          -85 callsubr
          endchar
        </CharString>
        <CharString name="Kcedilla">
          778 99 callsubr
          hstem
          143 callgsubr
          89 18 20 154 89 vstem
          -85 callsubr
          -215 -142 -101 callsubr
        </CharString>
        <CharString name="Kcommaaccent">
          778 198 callgsubr
          143 callgsubr
          89 18 20 154 89 hintmask 00111101
          -85 callsubr
          hintmask 11000010
          -215 -142 -101 callsubr
        </CharString>
        <CharString name="L">
          625 88 callgsubr
          hstem
          283 89 vstem
          -89 callsubr
          endchar
        </CharString>
        <CharString name="L_uni0303">
          625 88 callgsubr
          53 45 -6 45 224 callsubr
          hintmask 11001000
          -89 callsubr
          hintmask 00010000
          5 1083 -56 callsubr
        </CharString>
        <CharString name="Lacute">
          625 88 callgsubr
          138 callgsubr
          283 89 hintmask 11001000
          -89 callsubr
          hintmask 00110000
          14 1168 -97 callgsubr
        </CharString>
        <CharString name="Lambda">
          694 0 31 0 31 932 -20 hstemhm
          hintmask 10100000
          662 -13 callgsubr
          -59 -17 0 41 -3 hvcurveto
          -59 900 rlineto
          17 -1 0 5 -15 hhcurveto
          -16 -2 -5 -17 -7 hvcurveto
          -348 -873 rlineto
          -51 -21 -37 -17 -46 hhcurveto
          -5 -31 94 3 112 -3 5 31 -53 1 -26 25 5 30 rlinecurve
          4 1 2 6 16 vhcurveto
          274 686 rlineto
          1 hlineto
          47 -718 rlineto
          hintmask 01000000
          -6 1 -5 -1 -4 vhcurveto
          -31 -5 -66 0 -24 hhcurveto
          hintmask 10000000
          -87 callgsubr
          3 36 70 0 38 hhcurveto
          endchar
        </CharString>
        <CharString name="Lcaron">
          625 0 31 682 -21 174 95 -31 31 224 callsubr
          268 20 hintmask 10011000
          -89 callsubr
          106 867 rmoveto
          57 9 -16 37 -36 hhcurveto
          -31 -21 -24 -23 -4 hvcurveto
          hintmask 01100100
          72 callsubr
        </CharString>
        <CharString name="Lcedilla">
          154 callgsubr
          hintmask 01111000
          -89 callsubr
          -220 -139 rmoveto
          57 9 -16 37 -36 hhcurveto
          -31 -21 -24 -23 -3 15 callsubr
          hintmask 10000100
          14 11 5 9 13 hvcurveto
          0 2 -1 -2 -12 vhcurveto
          -10 -58 -34 -55 -47 -42 -6 -5 -1 -1 -1 -4 rrcurveto
          -6 116 callsubr
          82 71 104 18 hvcurveto
          endchar
        </CharString>
        <CharString name="Lcommaaccent">
          154 callgsubr
          hintmask 00111000
          -89 callsubr
          hintmask 11000100
          -220 -139 -101 callsubr
        </CharString>
        <CharString name="Ldot">
          625 0 31 478 106 315 31 hstem
          283 89 vstem
          -89 callsubr
          86 562 rmoveto
          22 callsubr
          endchar
        </CharString>
        <CharString name="Ldotbelow">
          625 91 callgsubr
          hstemhm
          234 107 -58 89 hintmask 01101000
          -89 callsubr
          hintmask 10010000
          -213 -147 -104 callsubr
        </CharString>
        <CharString name="Ldotbelowmacron">
          625 91 callgsubr
          73 32 hstemhm
          234 107 -58 89 hintmask 11100100
          -89 callsubr
          -213 -147 rmoveto
          -53 callgsubr
          hintmask 10001000
          -99 callsubr
          hintmask 00010000
          204 1181 -45 callsubr
        </CharString>
        <CharString name="Lslash">
          625 0 31 410 28 461 28 -28 31 hstemhm
          48 89 156 89 hintmask 11100100
          635 258 rmoveto
          -25 hlineto
          -102 -28 -35 -125 -176 hhcurveto
          -82 hlineto
          -47 -1 7 33 6 hvcurveto
          66 398 203 142 -16 26 -180 -126 62 371 rlineto
          34 6 2 14 95 hhcurveto
          33 hlineto
          hintmask 00010000
          -77 callsubr
          hintmask 00100000
          -3 -36 -91 0 -41 hhcurveto
          hintmask 11011100
          -39 -78 -14 callsubr
          -52 callgsubr
          -73 -442 -101 -71 18 -25 76 54 -54 -321 -88 callsubr
          521 hlineto
          endchar
        </CharString>
        <CharString name="M">
          917 0 209 callgsubr
          314 81 0 81 hintmask 11110100
          -48 callgsubr
          hintmask 10001000
          61 callsubr
          endchar
        </CharString>
        <CharString name="Mdotbelow">
          917 -200 106 94 209 callgsubr
          -15 107 222 81 0 81 hintmask 01111001
          -48 callgsubr
          hintmask 01000010
          61 callsubr
          hintmask 10000100
          -393 -147 -104 callsubr
        </CharString>
        <CharString name="Mu">
          917 0 209 callgsubr
          314 81 0 81 hintmask 11110100
          -48 callgsubr
          hintmask 10001000
          61 callsubr
          endchar
        </CharString>
        <CharString name="N">
          105 callsubr
          hstem
          189 callgsubr
          vstem
          -96 callsubr
          endchar
        </CharString>
        <CharString name="Nacute">
          105 callsubr
          138 callgsubr
          189 callgsubr
          hintmask 11100111
          -96 callsubr
          hintmask 00011000
          -113 238 -97 callgsubr
        </CharString>
        <CharString name="Ncaron">
          105 callsubr
          96 callgsubr
          189 callgsubr
          hintmask 11100111
          -96 callsubr
          hintmask 00011000
          -131 265 -63 callsubr
        </CharString>
        <CharString name="Ncedilla">
          176 callgsubr
          hstem
          162 callgsubr
          160 20 332 28 vstem
          -96 callsubr
          -475 -1069 -101 callsubr
        </CharString>
        <CharString name="Ncommaaccent">
          176 callgsubr
          hstemhm
          162 callgsubr
          160 20 332 28 hintmask 0011111010000000
          -96 callsubr
          hintmask 1100000100000000
          -475 -1069 -101 callsubr
        </CharString>
        <CharString name="Ndotaccent">
          105 callsubr
          53 106 hstemhm
          162 callgsubr
          283 107 122 28 hintmask 11101101
          -96 callsubr
          hintmask 00010010
          -265 137 -104 callsubr
        </CharString>
        <CharString name="Ndotbelow">
          160 callgsubr
          825 31 43 31 hstemhm
          162 callgsubr
          80 107 325 28 hintmask 01111101
          -96 callsubr
          hintmask 10000010
          -468 -1077 -104 callsubr
        </CharString>
        <CharString name="Ntilde">
          105 callsubr
          53 163 callsubr
          189 callgsubr
          hintmask 11100111
          -96 callsubr
          hintmask 00001000
          -122 153 5 callgsubr
        </CharString>
        <CharString name="Nu">
          105 callsubr
          hstem
          189 callgsubr
          vstem
          -96 callsubr
          endchar
        </CharString>
        <CharString name="O">
          23 callsubr
          hstem
          -105 callsubr
          endchar
        </CharString>
        <CharString name="OE">
          -43 callgsubr
        </CharString>
        <CharString name="OE.dup">
          -43 callgsubr
        </CharString>
        <CharString name="Oacute">
          23 callsubr
          62 -34 callsubr
          71 671 -97 callgsubr
        </CharString>
        <CharString name="Obreve">
          23 callsubr
          41 35 161 -20 hstemhm
          442 184 callsubr
          hintmask 11000000
          -105 callsubr
          hintmask 00111100
          41 723 -89 callgsubr
          endchar
        </CharString>
        <CharString name="Ocaron">
          778 -22 26 954 25 52 -34 callsubr
          53 698 -63 callsubr
        </CharString>
        <CharString name="Ocircumflex">
          778 -22 26 954 25 52 -34 callsubr
          25 532 -46 callsubr
        </CharString>
        <CharString name="Ocircumflexacute">
          177 callsubr
          412 -20 hstemhm
          hintmask 11000000
          -105 callsubr
          hintmask 00110000
          25 532 -95 callgsubr
          56 360 rmoveto
          23 16 -11 -30 callsubr
        </CharString>
        <CharString name="Ocircumflexdotbelow">
          170 callgsubr
          52 132 callgsubr
          hstemhm
          310 107 hintmask 01111000
          -105 callsubr
          25 532 -95 callgsubr
          hintmask 10000100
          -285 -1161 -104 callsubr
        </CharString>
        <CharString name="Ocircumflexgrave">
          778 -22 26 954 25 52 -34 callsubr
          25 532 12 callgsubr
        </CharString>
        <CharString name="Ocircumflexhookabove">
          177 callsubr
          206 69 callsubr
          614 9 callsubr
          hintmask 1100000000000000
          -105 callsubr
          hintmask 0010100010000000
          25 532 36 callsubr
          hintmask 0000010000000000
          -82 callsubr
          hintmask 0000101000010000
          3 17 -9 11 -14 -65 callsubr
          hintmask 0000000000101000
          -24 callsubr
          -17 -10 -9 -6 rrcurveto
          hintmask 0001001001000000
          83 callsubr
          hintmask 0001000100100000
          37 callsubr
          rlineto
          hintmask 0000000000010000
          59 callsubr
          hintmask 0000000000001000
          -25 callgsubr
        </CharString>
        <CharString name="Ocircumflextilde">
          177 callsubr
          236 163 callsubr
          hintmask 11000000
          -105 callsubr
          hintmask 00101000
          25 532 64 callsubr
          hintmask 00010000
          139 callgsubr
          hintmask 00001000
          -42 callsubr
          hintmask 00010000
          15 -15 rlineto
          hintmask 00001000
          139 callsubr
          hintmask 00010000
          21 callgsubr
        </CharString>
        <CharString name="Odblgrave">
          23 callsubr
          62 -21 hstemhm
          hintmask 11000000
          -105 callsubr
          hintmask 00100000
          -117 549 -72 callgsubr
        </CharString>
        <CharString name="Odieresis">
          23 callsubr
          31 100 hstemhm
          419 100 93 100 hintmask 11000000
          -105 callsubr
          hintmask 00111000
          -182 567 -87 callsubr
        </CharString>
        <CharString name="Odotbelow">
          170 callgsubr
          hstemhm
          310 107 hintmask 01100000
          -105 callsubr
          hintmask 10010000
          -284 -644 -104 callsubr
        </CharString>
        <CharString name="Ograve">
          23 callsubr
          62 -34 callsubr
          -41 549 -73 callgsubr
        </CharString>
        <CharString name="Ohookabove">
          23 callsubr
          63 69 callsubr
          487 59 -20 26 callgsubr
          hintmask 1100000010000000
          -105 callsubr
          hintmask 0001000100000000
          -20 681 rmoveto
          4 -23 callgsubr
          -25 4 -29 hhcurveto
          hintmask 0000100000000000
          -82 callsubr
          hintmask 0001010001000000
          3 17 -9 11 -14 -65 callsubr
          hintmask 0010010010100000
          -58 callgsubr
          5 -4 5 hhcurveto
          hintmask 0010001000000000
          152 callgsubr
          hintmask 0010000011000000
          28 callsubr
          hintmask 0000000000100000
          -25 callgsubr
        </CharString>
        <CharString name="Ohorn">
          23 callsubr
          -25 108 hstemhm
          hintmask 00100000
          -44 callgsubr
          hintmask 11000000
          -86 callgsubr
          endchar
        </CharString>
        <CharString name="Ohornacute">
          23 callsubr
          -25 108 154 -20 hstemhm
          hintmask 00100000
          -44 callgsubr
          hintmask 11000000
          -86 callgsubr
          hintmask 00010000
          45 668 -97 callgsubr
        </CharString>
        <CharString name="Ohorndotbelow">
          170 callgsubr
          -25 108 hstemhm
          310 107 hintmask 00010000
          -44 callgsubr
          hintmask 01100000
          -86 callgsubr
          hintmask 10001000
          -283 -647 -104 callsubr
        </CharString>
        <CharString name="Ohorngrave">
          23 callsubr
          -25 108 154 -20 hstemhm
          hintmask 00100000
          -44 callgsubr
          hintmask 11000000
          -86 callgsubr
          hintmask 00010000
          -40 546 -73 callgsubr
        </CharString>
        <CharString name="Ohornhookabove">
          23 callsubr
          -25 108 -20 69 callsubr
          487 59 -20 26 callgsubr
          hintmask 0010000000000000
          -44 callgsubr
          hintmask 1100000001100000
          -86 callgsubr
          hintmask 0000100010000000
          -19 678 26 callsubr
          5 -4 5 hhcurveto
          hintmask 0001000100000000
          152 callgsubr
          hintmask 0001000001100000
          28 callsubr
          hintmask 0000000000010000
          -25 callgsubr
        </CharString>
        <CharString name="Ohorntilde">
          23 callsubr
          -25 108 -52 163 callsubr
          hintmask 00100000
          800 478 rmoveto
          21 126 -7 126 -52 105 -12 23 -13 22 -17 20 45 10 37 45 8 49 rrcurveto
          33 6 -17 29 -31 hhcurveto
          hintmask 11010000
          -35 -23 -26 -26 -4 hvcurveto
          -27 -4 13 -26 35 hhcurveto
          5 4 0 1 4 hvcurveto
          -14 -21 -23 -16 -25 -5 rrcurveto
          -86 callgsubr
          hintmask 00001000
          63 583 5 callgsubr
        </CharString>
        <CharString name="Ohungarumlaut">
          23 callsubr
          62 -21 hstemhm
          hintmask 11000000
          -105 callsubr
          hintmask 00100000
          147 671 -6 callgsubr
        </CharString>
        <CharString name="Omacron">
          23 callsubr
          51 32 hstemhm
          hintmask 11000000
          -105 callsubr
          hintmask 00100000
          40 537 -45 callsubr
        </CharString>
        <CharString name="Omega">
          -29 callgsubr
        </CharString>
        <CharString name="Omicron">
          23 callsubr
          hstem
          -105 callsubr
          endchar
        </CharString>
        <CharString name="Oogonek">
          208 callsubr
          hstem
          505 48 vstem
          -8 callsubr
          endchar
        </CharString>
        <CharString name="Oogonekacute">
          208 callsubr
          62 132 callgsubr
          hstemhm
          505 48 hintmask 11100100
          -8 callsubr
          hintmask 00011000
          71 671 -97 callgsubr
        </CharString>
        <CharString name="Orogate">
          778 801 478 rmoveto
          48 289 -119 207 -166 9 29 173 rcurveline
          -22 hlineto
          -29 -173 -173 -9 -186 -210 -47 -286 rlinecurve
          -48 -288 120 -204 166 -8 -28 -172 rcurveline
          22 hlineto
          28 172 172 10 185 206 48 284 rlinecurve
          -100 19 rmoveto
          -350 -58 -146 -143 -107 hhcurveto
          -108 -98 143 350 58 hvcurveto
          350 58 155 111 93 hhcurveto
          95 116 -113 -348 -58 hvcurveto
          endchar
        </CharString>
        <CharString name="Oslash">
          157 callgsubr
          hstem
          136 89 487 89 vstem
          -64 callsubr
          endchar
        </CharString>
        <CharString name="Oslash.dup">
          157 callgsubr
          hstem
          136 89 487 89 vstem
          -64 callsubr
          endchar
        </CharString>
        <CharString name="Oslashacute">
          157 callgsubr
          49 132 callgsubr
          hstemhm
          136 89 487 89 hintmask 11110011
          -64 callsubr
          hintmask 00001100
          60 690 -97 callgsubr
        </CharString>
        <CharString name="Otilde">
          23 callsubr
          31 163 callsubr
          hintmask 11000000
          -105 callsubr
          hintmask 00010000
          62 586 -56 callsubr
        </CharString>
        <CharString name="P">
          -21 callsubr
        </CharString>
        <CharString name="Phi">
          722 0 31 149 22 558 22 148 31 hstem
          329 83 -83 100 -83 83 cntrmask 00001110
          745 480 rmoveto
          27 160 -99 126 -143 17 16 99 98 callgsubr
          -16 -99 -156 -24 -130 -129 -25 -149 rlinecurve
          -25 -152 89 -128 146 -23 -17 -99 rcurveline
          142 callgsubr
          92 0 41 hhcurveto
          41 93 65 callsubr
          17 99 151 17 139 129 26 156 rlinecurve
          -395 -278 rmoveto
          -153 41 29 174 10 63 11 64 29 174 167 41 rrcurveto
          202 -278 rmoveto
          -10 -61 -31 -184 -171 -35 93 559 rcurveline
          160 -35 -31 -184 -10 -60 rrcurveto
          endchar
        </CharString>
        <CharString name="Pi">
          174 callsubr
          896 31 hstem
          149 89 299 89 vstem
          716 120 callgsubr
          -683 hlineto
          -5 -31 rlineto
          24 hlineto
          77 0 -11 -36 -6 hvcurveto
          -134 -802 -79 callgsubr
          142 849 205 callgsubr
          -142 -849 -82 callgsubr
          endchar
        </CharString>
        <CharString name="Psi">
          778 0 31 150 24 552 30 143 31 hstemhm
          357 83 -66 83 -79 83 30 83 hintmask 01110011
          849 776 rmoveto
          11 2 -8 0 -16 hhcurveto
          -38 hlineto
          -89 -15 -93 -129 -22 hvcurveto
          -15 -93 -48 -220 -139 -47 113 677 98 callgsubr
          -113 -677 -126 53 39 241 18 105 rlinecurve
          156 26 -30 27 -55 hhcurveto
          -37 hlineto
          -15 -10 0 -11 -2 hvcurveto
          -5 2 -5 6 -1 vhcurveto
          28 -3 29 -4 -28 -168 rrcurveto
          hintmask 00000100
          -14 -86 -46 -284 211 -41 rrcurveto
          hintmask 10001000
          -17 -100 rlineto
          142 callgsubr
          92 0 41 hhcurveto
          41 93 65 callsubr
          hintmask 00000100
          17 100 230 38 50 293 12 69 rlinecurve
          17 107 17 72 51 7 8 1 6 1 1 9 rrcurveto
          endchar
        </CharString>
        <CharString name="Q">
          778 -194 103 69 22 -22 25 36 25 117 22 755 25 hstemhm
          136 100 87 22 356 100 hintmask 1101111110000000
          725 -10 rmoveto
          10 2 2 11 -11 hhcurveto
          -9 -2 -8 -10 -3 hvcurveto
          -54 -15 -47 -30 -43 hhcurveto
          -47 -23 27 83 -7 hvcurveto
          89 48 146 151 44 260 rrcurveto
          295 49 -125 210 -172 hhcurveto
          -176 -193 -213 -292 -48 hvcurveto
          -291 -49 123 -209 175 hhcurveto
          37 38 11 11 27 hvcurveto
          -83 -9 -11 -111 107 hhcurveto
          102 41 133 51 8 hvcurveto
          -24 488 rmoveto
          -24 -142 -51 -174 -107 -98 rrcurveto
          69 -6 -13 70 -76 hhcurveto
          -54 -37 -55 -57 -10 hvcurveto
          -5 -33 5 -25 5 -14 -74 43 -23 102 -6 55 -11 75 5 81 17 103 rrcurveto
          351 58 153 129 101 hhcurveto
          106 104 -134 -346 -57 hvcurveto
          -210 -439 rmoveto
          hintmask 0011100100000000
          -31 -45 -35 -5 -21 hhcurveto
          -59 14 85 3 hvcurveto
          20 4 18 70 54 hhcurveto
          75 0 -71 -71 -5 hvcurveto
          endchar
        </CharString>
        <CharString name="R">
          736 -22 155 callsubr
          173 103 -98 103 -99 103 14 103 -2 25 hintmask 1010000010001000
          -58 callsubr
          hintmask 0000000001000000
          5 107 rlineto
          hintmask 0000000010010000
          10 callgsubr
          hintmask 0000101001000000
          -35 callgsubr
          hintmask 0100010000000000
          -69 callsubr
          hintmask 1000001100000000
          -31 callgsubr
          hintmask 0101010100100000
          -61 callsubr
          hintmask 1001100000101000
          -78 callgsubr
          hintmask 0000000000010000
          86 callsubr
          endchar
        </CharString>
        <CharString name="Racute">
          94 callsubr
          84 -21 196 -20 150 callgsubr
          17 84 callsubr
          hintmask 1010000000100010
          -58 callsubr
          hintmask 0000000000010000
          5 107 rlineto
          hintmask 0000000000100100
          10 callgsubr
          hintmask 0000100010010000
          -35 callgsubr
          hintmask 0100000100000000
          -69 callsubr
          hintmask 1000000011000000
          -31 callgsubr
          hintmask 0101000101001000
          -61 callsubr
          hintmask 1001100000001010
          -78 callgsubr
          hintmask 0000000000000100
          86 callsubr
          hintmask 0000011000000000
          125 457 -97 callgsubr
        </CharString>
        <CharString name="Rcaron">
          94 callsubr
          74 -21 196 -20 150 callgsubr
          17 84 callsubr
          hintmask 1010000000100010
          -58 callsubr
          hintmask 0000000000010000
          5 107 rlineto
          hintmask 0000000000100100
          10 callgsubr
          hintmask 0000100010010000
          -35 callgsubr
          hintmask 0100000100000000
          -69 callsubr
          hintmask 1000000011000000
          -31 callgsubr
          hintmask 0101000101001000
          -61 callsubr
          hintmask 1001100000001010
          -78 callgsubr
          hintmask 0000000000000100
          86 callsubr
          hintmask 0000011000000000
          107 484 -63 callsubr
        </CharString>
        <CharString name="Rcedilla">
          736 179 callsubr
          155 callsubr
          42 20 111 66 callgsubr
          hintmask 0010100000010001
          -58 callsubr
          hintmask 0000000000001000
          5 107 rlineto
          hintmask 0000000000010010
          10 callgsubr
          hintmask 0000001010001000
          -35 callgsubr
          hintmask 0001000100000000
          -69 callsubr
          hintmask 0010000011000000
          -31 callgsubr
          hintmask 0001010101000100
          -61 callsubr
          hintmask 0010011000000101
          -78 callgsubr
          hintmask 1100000000100010
          86 callsubr
          -237 -850 -101 callsubr
        </CharString>
        <CharString name="Rcommaaccent">
          736 179 callsubr
          155 callsubr
          42 20 111 66 callgsubr
          hintmask 0010100000010001
          -58 callsubr
          hintmask 0000000000001000
          5 107 rlineto
          hintmask 0000000000010010
          10 callgsubr
          hintmask 0000001010001000
          -35 callgsubr
          hintmask 0001000100000000
          -69 callsubr
          hintmask 0010000011000000
          -31 callgsubr
          hintmask 0001010101000100
          -61 callsubr
          hintmask 0010011000000101
          -78 callgsubr
          hintmask 0000000000000010
          86 callsubr
          hintmask 1100000000100000
          -237 -850 -101 callsubr
        </CharString>
        <CharString name="Rdblgrave">
          94 callsubr
          84 -21 150 callgsubr
          17 84 callsubr
          hintmask 1010000001000100
          -58 callsubr
          hintmask 0000000000100000
          5 107 rlineto
          hintmask 0000000001001000
          10 callgsubr
          hintmask 0000100100100000
          -35 callgsubr
          hintmask 0100001000000000
          -69 callsubr
          hintmask 1000000110000000
          -31 callgsubr
          hintmask 0101001010010000
          -61 callsubr
          hintmask 1001100000010100
          -78 callgsubr
          hintmask 0000000000001000
          86 callsubr
          hintmask 0000010000000000
          -90 335 -72 callgsubr
        </CharString>
        <CharString name="Rdotaccent">
          94 callsubr
          75 106 150 callgsubr
          17 25 168 107 -102 66 callgsubr
          hintmask 1010000000100010
          -58 callsubr
          hintmask 0000000000010000
          5 107 rlineto
          hintmask 0000000000100100
          10 callgsubr
          hintmask 0000100100010000
          -35 callgsubr
          hintmask 0100001000000000
          -69 callsubr
          hintmask 1000000110000000
          -31 callgsubr
          hintmask 0101001010001000
          -61 callsubr
          hintmask 1001100000001010
          -78 callgsubr
          hintmask 0000000000000100
          86 callsubr
          hintmask 0000010001000000
          -24 378 -104 callsubr
        </CharString>
        <CharString name="Rdotbelow">
          736 -200 106 72 108 callsubr
          4 107 -94 84 callsubr
          hintmask 0101000000100010
          -58 callsubr
          hintmask 0000000000010000
          5 107 rlineto
          hintmask 0000000000100100
          10 callgsubr
          hintmask 0000010100010000
          -35 callgsubr
          hintmask 0010001000000000
          -69 callsubr
          hintmask 0100000101000000
          -31 callgsubr
          hintmask 0010101001001000
          -61 callsubr
          hintmask 0100110000001010
          -78 callgsubr
          hintmask 0000000000000100
          86 callsubr
          hintmask 1000000010000000
          -230 -858 -104 callsubr
        </CharString>
        <CharString name="Rdotbelowmacron">
          736 -200 106 72 54 callgsubr
          73 32 150 callgsubr
          4 107 -94 84 callsubr
          hintmask 0101000000010001
          -58 callsubr
          hintmask 0000000000001000
          5 107 rlineto
          hintmask 0000000000010010
          10 callgsubr
          hintmask 0000010010001000
          -35 callgsubr
          hintmask 0010000100000000
          -69 callsubr
          hintmask 0100000010100000
          -31 callgsubr
          hintmask 0010100100100100
          -61 callsubr
          hintmask 0100110000000101
          -78 callgsubr
          hintmask 1000000001000010
          86 callsubr
          -230 -858 -103 callgsubr
          hintmask 0000001000000000
          324 1181 -45 callsubr
        </CharString>
        <CharString name="Rho">
          -21 callsubr
        </CharString>
        <CharString name="S">
          168 callgsubr
          hstem
          542 256 rmoveto
          -102 callsubr
          endchar
        </CharString>
        <CharString name="S_S">
          1111 -22 127 callgsubr
          hstem
          542 256 rmoveto
          -102 callsubr
          555 hmoveto
          -102 callsubr
          endchar
        </CharString>
        <CharString name="Sacute">
          168 callgsubr
          62 210 callgsubr
          542 256 rmoveto
          -102 callsubr
          hintmask 00011000
          119 912 -97 callgsubr
        </CharString>
        <CharString name="Scaron">
          168 callgsubr
          52 210 callgsubr
          542 256 rmoveto
          -102 callsubr
          hintmask 00011000
          101 939 -63 callsubr
        </CharString>
        <CharString name="Scedilla">
          556 -203 22 159 31 -29 22 530 31 392 28 hstemhm
          63 69 -51 69 39 69 -64 64 72 69 164 69 hintmask 0001100010100000
          542 256 rmoveto
          15 89 -15 53 -12 35 -24 68 -53 20 -30 11 -87 31 rcurveline
          -35 13 -23 9 -20 40 -20 41 2 56 7 38 rrcurveto
          104 17 69 91 79 hhcurveto
          150 7 -158 -131 -12 hvcurveto
          -20 -2 0 -4 11 hhcurveto
          13 1 5 19 3 hvcurveto
          49 293 rlineto
          17 3 1 7 -11 hhcurveto
          -9 -2 -4 -11 -7 hvcurveto
          -44 -74 rlineto
          78 -37 -67 11 -43 hhcurveto
          -110 -105 -114 -145 -24 hvcurveto
          hintmask 0100010100000000
          -8 -48 -2 -52 22 -59 25 -66 51 -19 41 -15 98 -36 rcurveline
          86 -32 -9 -119 -9 -55 rrcurveto
          -115 -19 -70 -99 -80 hhcurveto
          -215 38 252 47 6 hvcurveto
          9 2 -6 2 -6 hhcurveto
          -13 -1 -7 -18 -3 hvcurveto
          hintmask 0010000000000000
          -49 -292 rlineto
          hintmask 0100010000000000
          70 callsubr
          hintmask 1010001011000000
          8 2 2 14 8 hvcurveto
          9 14 5 11 34 52 23 -42 41 -39 72 -10 -9 -51 rcurveline
          -1 callsubr
          150 callsubr
          5 37 rcurveline
          100 22 86 116 23 136 rrcurveto
          endchar
        </CharString>
        <CharString name="Scircumflex">
          168 callgsubr
          52 210 callgsubr
          542 256 rmoveto
          -102 callsubr
          hintmask 00011000
          73 773 -46 callsubr
        </CharString>
        <CharString name="Sdotbelow">
          556 -200 106 72 127 callgsubr
          hstemhm
          199 107 hintmask 01111000
          542 256 rmoveto
          -102 callsubr
          hintmask 10001000
          -236 -403 -104 callsubr
        </CharString>
        <CharString name="Sigma">
          722 0 42 -31 31 888 31 hstemhm
          hintmask 01100000
          704 236 rmoveto
          -25 hlineto
          -164 -47 -65 -30 -167 hhcurveto
          -284 hlineto
          329 424 rlineto
          8 10 1 2 3 vvcurveto
          1 4 -4 11 0 vvcurveto
          -137 434 rlineto
          240 hlineto
          159 58 -29 -165 -8 hvcurveto
          25 hlineto
          9 225 rlineto
          -555 hlineto
          -24 -2 0 -23 -4 hvcurveto
          164 -515 -309 -398 rlineto
          -7 -10 -1 -4 0 vvcurveto
          hintmask 10000000
          -11 -2 10 0 15 hhcurveto
          555 hlineto
          endchar
        </CharString>
        <CharString name="T">
          158 callsubr
          hstem
          329 89 45 89 vstem
          -92 callgsubr
          endchar
        </CharString>
        <CharString name="T_uni0303">
          158 callsubr
          59 163 callsubr
          329 89 45 89 hintmask 11001100
          -92 callgsubr
          hintmask 00010000
          -46 353 -56 callsubr
        </CharString>
        <CharString name="T_uni0308">
          158 callsubr
          59 100 hstemhm
          329 89 -26 100 -29 89 33 100 hintmask 11010100
          -92 callgsubr
          hintmask 00101010
          -290 334 -87 callsubr
        </CharString>
        <CharString name="Tau">
          158 callsubr
          hstem
          329 89 45 89 vstem
          -92 callgsubr
          endchar
        </CharString>
        <CharString name="Tcaron">
          158 callsubr
          80 132 callgsubr
          hstemhm
          329 89 45 89 hintmask 11001100
          -92 callgsubr
          hintmask 00111000
          -55 465 -63 callsubr
        </CharString>
        <CharString name="Tcedilla">
          722 -203 22 181 225 callgsubr
          hstemhm
          329 89 -30 69 6 89 hintmask 01110100
          807 730 rmoveto
          18 225 rlineto
          -611 hlineto
          -56 -225 rlineto
          25 hlineto
          161 41 20 33 151 hhcurveto
          18 26 0 -2 10 hvcurveto
          20 -4 -2 -11 -4 -23 42 callgsubr
          163 callgsubr
          -105 hhcurveto
          -40 102 callgsubr
          2 33 72 1 50 hhcurveto
          -12 -74 rlineto
          hintmask 11001000
          -1 callsubr
          150 callsubr
          9 58 rcurveline
          52 71 -1 -2 32 hvcurveto
          -77 callsubr
          -40 hlineto
          hintmask 00110100
          -105 3 14 34 5 81 callgsubr
          4 20 2 14 19 4 rlinecurve
          2 11 27 0 19 hhcurveto
          151 10 -33 -161 -13 hvcurveto
          endchar
        </CharString>
        <CharString name="Tdotbelow">
          722 133 callgsubr
          225 callgsubr
          hstemhm
          282 107 -60 89 45 89 hintmask 01101100
          -92 callgsubr
          hintmask 10010000
          -393 -877 -104 callsubr
        </CharString>
        <CharString name="Theta">
          778 -22 23 442 76 442 22 hstem
          136 97 43 25 4 25 278 25 4 25 42 97 vstem
          801 478 rmoveto
          295 49 -125 210 -172 hhcurveto
          -176 -193 -213 -292 -48 209 callsubr
          175 193 209 291 49 hvcurveto
          -97 hmoveto
          -347 -58 -154 -130 -103 hhcurveto
          -107 -106 135 342 57 hvcurveto
          341 57 149 142 110 hhcurveto
          105 108 -136 -347 -58 hvcurveto
          -71 -83 rmoveto
          29 172 rlineto
          -25 hlineto
          -8 -48 rlineto
          -307 hlineto
          8 48 rlineto
          -25 hlineto
          -29 -172 rlineto
          25 hlineto
          8 48 rlineto
          307 hlineto
          -8 -48 rlineto
          endchar
        </CharString>
        <CharString name="Thorn">
          625 0 31 219 31 458 31 160 31 hstem
          654 510 rmoveto
          9 55 -1 68 -38 61 rrcurveto
          76 -49 -74 0 -27 hhcurveto
          -124 hlineto
          19 111 5 29 3 13 32 4 rlinecurve
          3 19 26 0 26 hhcurveto
          5 31 -144 -3 -145 39 callgsubr
          29 25 0 -3 21 hvcurveto
          27 -5 -3 -17 -4 -24 -134 -801 rcurveline
          -4 -29 -4 -13 -31 -4 rrcurveto
          -3 -20 -26 0 -26 hhcurveto
          -5 -31 145 3 144 -3 -77 callsubr
          -29 -25 0 3 -20 hvcurveto
          -27 5 2 17 4 24 29 170 rcurveline
          133 hlineto
          131 104 126 134 22 hvcurveto
          -100 hmoveto
          -7 -45 -18 -55 -32 -48 rrcurveto
          -81 -54 -51 0 -22 hhcurveto
          -101 hlineto
          76 458 rlineto
          108 hlineto
          29 40 0 -71 24 hvcurveto
          12 -36 8 -52 -12 -70 rrcurveto
          endchar
        </CharString>
        <CharString name="Tlinebelow">
          722 -163 32 131 225 callgsubr
          hstemhm
          329 89 45 89 hintmask 01111000
          -92 callgsubr
          hintmask 10000000
          -268 -893 -45 callsubr
        </CharString>
        <CharString name="U">
          48 callsubr
          128 callsubr
          hintmask 11010000
          -101 callgsubr
          hintmask 11100000
          -93 callsubr
          endchar
        </CharString>
        <CharString name="U_uni032F">
          750 204 callgsubr
          27 31 921 31 128 callsubr
          hintmask 00110100
          -101 callgsubr
          hintmask 00111000
          -93 callsubr
          hintmask 11000000
          -364 -1175 19 callsubr
        </CharString>
        <CharString name="Uacute">
          48 callsubr
          84 -21 196 -20 128 callsubr
          hintmask 11000100
          -101 callgsubr
          hintmask 11001000
          -93 callsubr
          hintmask 00110000
          -90 238 -97 callgsubr
        </CharString>
        <CharString name="Ubreve">
          48 callsubr
          63 35 161 -20 128 callsubr
          79 184 callsubr
          hintmask 11000100
          -101 callgsubr
          hintmask 11001000
          -93 callsubr
          hintmask 00110011
          -120 290 -89 callgsubr
          endchar
        </CharString>
        <CharString name="Ucaron">
          48 callsubr
          74 -21 196 -20 128 callsubr
          hintmask 11000100
          -101 callgsubr
          hintmask 11001000
          -93 callsubr
          hintmask 00110000
          -108 265 -63 callsubr
        </CharString>
        <CharString name="Ucircumflex">
          48 callsubr
          74 -21 196 -20 128 callsubr
          hintmask 11000100
          -101 callgsubr
          hintmask 11001000
          -93 callsubr
          hintmask 00110000
          -136 99 -46 callsubr
        </CharString>
        <CharString name="Udblgrave">
          48 callsubr
          84 -21 128 callsubr
          hintmask 11001000
          -101 callgsubr
          hintmask 11010000
          -93 callsubr
          hintmask 00100000
          -278 116 -72 callgsubr
        </CharString>
        <CharString name="Udieresis">
          48 callsubr
          53 100 128 callsubr
          56 100 93 100 hintmask 11001000
          -101 callgsubr
          hintmask 11010000
          -93 callsubr
          hintmask 00100110
          -24 callgsubr
          endchar
        </CharString>
        <CharString name="Udieresisacute">
          48 callsubr
          53 100 83 132 callgsubr
          128 callsubr
          56 100 93 100 hintmask 1100001000000000
          -101 callgsubr
          hintmask 1100010000000000
          -93 callsubr
          hintmask 0011100110000000
          -24 callgsubr
          85 256 -97 callgsubr
        </CharString>
        <CharString name="Udieresiscaron">
          48 callsubr
          53 100 73 132 callgsubr
          128 callsubr
          56 100 93 100 hintmask 1100001000000000
          -101 callgsubr
          hintmask 1100010000000000
          -93 callsubr
          hintmask 0011100110000000
          -24 callgsubr
          67 283 -63 callsubr
        </CharString>
        <CharString name="Udieresisgrave">
          48 callsubr
          53 100 83 132 callgsubr
          128 callsubr
          56 100 93 100 hintmask 1100001000000000
          -101 callgsubr
          hintmask 1100010000000000
          -93 callsubr
          hintmask 0011100110000000
          -24 callgsubr
          -27 134 -73 callgsubr
        </CharString>
        <CharString name="Udotbelow">
          750 -200 106 72 31 921 31 224 callsubr
          -53 107 -85 31 hintmask 01100100
          -101 callgsubr
          hintmask 01110000
          -93 callsubr
          hintmask 10001000
          -445 -1077 -104 callsubr
        </CharString>
        <CharString name="Ugrave">
          48 callsubr
          84 -21 196 -20 128 callsubr
          hintmask 11000100
          -101 callgsubr
          hintmask 11001000
          -93 callsubr
          hintmask 00110000
          -202 116 -73 callgsubr
        </CharString>
        <CharString name="Uhookabove">
          48 callsubr
          85 19 161 19 128 callsubr
          124 59 -20 26 callgsubr
          hintmask 1100010000000000
          -101 callgsubr
          hintmask 1100100000000000
          -93 callsubr
          hintmask 0001000001000000
          -181 248 97 callgsubr
          hintmask 0001000100010000
          3 17 -9 11 -14 -65 callsubr
          hintmask 0010000100101000
          -58 callgsubr
          5 -4 5 hhcurveto
          hintmask 0010000010000000
          152 callgsubr
          hintmask 0010000000110000
          28 callsubr
          hintmask 0000000000001000
          -25 callgsubr
        </CharString>
        <CharString name="Uhorn">
          65 callgsubr
          157 callsubr
          hintmask 0010000010000000
          -17 callsubr
          hintmask 1100111100000000
          -59 callsubr
          hintmask 1001111100000000
          -68 callgsubr
          hintmask 0010000000000000
          90 callsubr
          endchar
        </CharString>
        <CharString name="Uhornacute">
          65 callgsubr
          262 -20 157 callsubr
          hintmask 0010000001000000
          -17 callsubr
          hintmask 1100101110000000
          -59 callsubr
          hintmask 1001101110000000
          -68 callgsubr
          hintmask 0010000000000000
          90 callsubr
          hintmask 0000010000000000
          -139 166 -97 callgsubr
        </CharString>
        <CharString name="Uhorndotbelow">
          750 -200 106 72 30 858 28 -6 178 -172 30 6 28 203 callgsubr
          -77 107 232 30 99 88 hintmask 0001000000100000
          -17 callsubr
          hintmask 0110011101000000
          -59 callsubr
          hintmask 0100111101000000
          -68 callgsubr
          hintmask 0001000000000000
          90 callsubr
          hintmask 1000000010000000
          -490 -1149 -104 callsubr
        </CharString>
        <CharString name="Uhorngrave">
          65 callgsubr
          262 -20 157 callsubr
          hintmask 0010000001000000
          -17 callsubr
          hintmask 1100101110000000
          -59 callsubr
          hintmask 1001101110000000
          -68 callgsubr
          hintmask 0010000000000000
          90 callsubr
          hintmask 0000010000000000
          -224 44 -73 callgsubr
        </CharString>
        <CharString name="Uhornhookabove">
          65 callgsubr
          88 19 161 19 203 callgsubr
          123 28 callgsubr
          18 59 -18 30 -18 43 74 88 hintmask 001000000000000001000000
          -17 callsubr
          hintmask 110010011000000100000000
          -59 callsubr
          hintmask 100110011000000100000000
          -68 callgsubr
          hintmask 001000000000000000000000
          90 callsubr
          hintmask 000000100000100000000000
          -203 176 rmoveto
          4 -23 callgsubr
          -25 4 -29 hhcurveto
          224 callgsubr
          -82 callsubr
          hintmask 000000100010001000000000
          3 17 -9 11 -14 -65 callsubr
          hintmask 000001000010010010000000
          -58 callgsubr
          5 -4 5 hhcurveto
          hintmask 000001000001000000000000
          152 callgsubr
          hintmask 000001000000011000000000
          28 callsubr
          hintmask 000000000000000010000000
          -25 callgsubr
        </CharString>
        <CharString name="Uhorntilde">
          65 callgsubr
          56 45 -6 45 157 callsubr
          hintmask 0010000000000000
          893 1002 rmoveto
          34 6 -17 30 -31 hhcurveto
          hintmask 1100110111100000
          -35 -23 -26 -26 -4 hvcurveto
          -27 -4 13 -26 35 hhcurveto
          7 6 1 1 6 hvcurveto
          -20 -27 -33 -19 -35 -4 8 48 rcurveline
          -59 callsubr
          hintmask 1001100111000000
          -68 callgsubr
          hintmask 0010000000000000
          90 callsubr
          hintmask 0000001000000000
          -121 81 132 callsubr
          hintmask 0000010000000000
          87 callgsubr
          hintmask 0000001000000000
          -42 callsubr
          hintmask 0000010000000000
          15 -15 rlineto
          hintmask 0000001000000000
          87 callsubr
          hintmask 0000010000000000
          -38 callsubr
        </CharString>
        <CharString name="Uhungarumlaut">
          48 callsubr
          84 -21 128 callsubr
          hintmask 11001000
          -101 callgsubr
          hintmask 11010000
          -93 callsubr
          hintmask 00100000
          -14 238 -6 callgsubr
        </CharString>
        <CharString name="Umacron">
          48 callsubr
          73 32 128 callsubr
          hintmask 11001000
          -101 callgsubr
          hintmask 11010000
          -93 callsubr
          hintmask 00100000
          -121 104 -45 callsubr
        </CharString>
        <CharString name="Uogonek">
          750 -211 47 142 31 921 31 hstem
          283 89 vstem
          871 930 rmoveto
          5 31 -118 -3 213 callsubr
          rlineto
          103 -8 -47 -27 -4 hvcurveto
          -104 -625 rlineto
          -142 -24 -110 -80 -95 hhcurveto
          -47 -114 25 190 31 hvcurveto
          110 659 -91 callsubr
          -109 -655 -21 -125 75 -100 112 -21 rlinecurve
          -37 -29 -31 -38 -6 -36 78 callgsubr
          17 callsubr
          13 18 17 16 7 7 8 6 8 6 rrcurveto
          10 hlineto
          115 106 93 114 36 hvcurveto
          6 20 2 9 6 40 100 598 rcurveline
          33 6 7 45 103 hhcurveto
          endchar
        </CharString>
        <CharString name="Upsilon">
          778 0 31 875 77 hstemhm
          357 89 -10 89 hintmask 01010000
          851 779 rmoveto
          5 1 33 199 -132 hhcurveto
          -144 -69 -148 -124 -32 hvcurveto
          -1 hlineto
          125 6 -16 147 -145 hhcurveto
          -131 -34 -195 -9 -1 hvcurveto
          -15 -3 -1 -6 16 hhcurveto
          13 2 6 10 3 hvcurveto
          89 20 51 43 51 hhcurveto
          116 20 -127 -229 -38 hvcurveto
          hintmask 10100000
          -79 -471 rlineto
          142 callgsubr
          95 0 41 hhcurveto
          41 96 65 callsubr
          hintmask 01010000
          79 471 rlineto
          235 39 64 121 113 hhcurveto
          63 23 -61 -67 -7 hvcurveto
          -15 -2 -1 -5 14 hhcurveto
          16 1 6 15 3 hvcurveto
          endchar
        </CharString>
        <CharString name="Uring">
          48 callsubr
          33 23 130 23 128 callsubr
          hintmask 11000100
          -101 callgsubr
          hintmask 11001000
          -93 callsubr
          hintmask 00110000
          -223 152 -40 callsubr
          endchar
        </CharString>
        <CharString name="Utilde">
          48 callsubr
          53 45 -6 45 128 callsubr
          hintmask 11000100
          -101 callgsubr
          hintmask 11001000
          -93 callsubr
          hintmask 00010000
          -99 153 -56 callsubr
        </CharString>
        <CharString name="V">
          750 -1 -21 921 31 0 31 hstemhm
          hintmask 00100000
          887 930 119 callgsubr
          -30 -41 -1 -26 hhcurveto
          -114 3 -5 -31 57 -2 18 -27 -4 -25 rlinecurve
          -1 -4 0 -4 -7 -14 -312 -712 rcurveline
          -78 739 rlineto
          hintmask 01000000
          0 -2 14 1 4 vhcurveto
          31 5 61 0 27 hhcurveto
          hintmask 10100000
          -77 callsubr
          -3 -35 -70 0 -38 hhcurveto
          -126 39 callgsubr
          68 15 0 -42 4 hvcurveto
          94 -889 rlineto
          -16 1 1 -5 15 hhcurveto
          16 3 5 16 7 hvcurveto
          379 862 rlineto
          25 11 21 44 80 hhcurveto
          endchar
        </CharString>
        <CharString name="W">
          178 callsubr
          hstem
          -90 callgsubr
          endchar
        </CharString>
        <CharString name="Wacute">
          178 callsubr
          84 210 callgsubr
          -90 callgsubr
          hintmask 00011000
          -268 238 -97 callgsubr
        </CharString>
        <CharString name="Wcircumflex">
          178 callsubr
          74 210 callgsubr
          -90 callgsubr
          hintmask 00011000
          -314 99 -46 callsubr
        </CharString>
        <CharString name="Wdieresis">
          178 callsubr
          53 100 hstemhm
          544 100 93 100 hintmask 11100000
          -90 callgsubr
          hintmask 00011100
          -521 58 callgsubr
        </CharString>
        <CharString name="Wgrave">
          178 callsubr
          84 210 callgsubr
          -90 callgsubr
          hintmask 00011000
          -380 116 -73 callgsubr
        </CharString>
        <CharString name="X">
          -39 callgsubr
        </CharString>
        <CharString name="Xi">
          667 0 70 97 -20 285 -21 51 70 51 -20 236 78 0 78 -70 70 hstemhm
          180 25 3 25 3 25 cntrmask 0000000011100000
          hintmask 0000001011100000
          752 799 rmoveto
          18 156 rlineto
          -556 hlineto
          hintmask 1111110111100000
          -34 -156 rlineto
          25 hlineto
          9 41 7 26 9 11 rrcurveto
          8 8 61 0 9 hhcurveto
          346 hlineto
          11 59 0 -8 4 hvcurveto
          5 -11 -1 -26 -5 -41 rrcurveto
          -75 -632 rmoveto
          -25 hlineto
          -11 -46 -5 -26 -10 -14 rrcurveto
          -11 -8 -52 0 -22 hhcurveto
          -348 hlineto
          -18 -55 0 10 -6 hvcurveto
          -5 13 3 30 5 44 rrcurveto
          -25 hlineto
          -20 -167 rlineto
          566 hlineto
          -20 411 rmoveto
          28 172 rlineto
          -25 hlineto
          -8 -51 rlineto
          -338 hlineto
          8 51 rlineto
          -25 hlineto
          -28 -172 rlineto
          25 hlineto
          8 51 rlineto
          338 hlineto
          -8 -51 rlineto
          endchar
        </CharString>
        <CharString name="Y">
          142 callsubr
          hstemhm
          344 86 -76 86 -45 86 hintmask 01010000
          895 930 119 callgsubr
          -31 -35 -1 -31 hhcurveto
          -114 3 -5 -31 51 -1 13 -25 -4 -21 rlinecurve
          -1 -8 -3 -5 -6 -10 -258 -428 rcurveline
          -122 452 rlineto
          -1 4 -1 10 4 vvcurveto
          28 5 52 0 26 116 callgsubr
          -70 0 -38 hhcurveto
          -127 39 callgsubr
          84 1 -6 -36 10 hvcurveto
          hintmask 00001000
          171 callsubr
          hintmask 10100000
          -51 -306 -55 callgsubr
          hintmask 01001000
          29 callsubr
          endchar
        </CharString>
        <CharString name="Yacute">
          142 callsubr
          84 -21 196 -20 -80 callgsubr
          hintmask 00110000
          -137 238 -97 callgsubr
        </CharString>
        <CharString name="Ycircumflex">
          142 callsubr
          74 -21 196 -20 -80 callgsubr
          hintmask 00110000
          -183 99 -46 callsubr
        </CharString>
        <CharString name="Ydieresis">
          142 callsubr
          53 100 hstemhm
          344 86 -76 86 -45 86 -76 100 93 100 hintmask 01001000
          895 930 119 callgsubr
          -31 -35 -1 -31 hhcurveto
          -114 3 -5 -31 51 -1 13 -25 -4 -21 rlinecurve
          -1 -8 -3 -5 -6 -10 -258 -428 rcurveline
          -122 452 rlineto
          -1 4 -1 10 4 vvcurveto
          28 5 52 0 26 116 callgsubr
          -70 0 -38 hhcurveto
          -127 39 callgsubr
          84 1 -6 -36 10 hvcurveto
          hintmask 00000100
          171 callsubr
          hintmask 10010000
          -51 -306 -55 callgsubr
          hintmask 01000100
          29 callsubr
          hintmask 00100011
          -390 58 callgsubr
        </CharString>
        <CharString name="Ydotbelow">
          750 91 callgsubr
          hstemhm
          296 107 -59 86 -76 86 -45 86 hintmask 00100100
          895 930 119 callgsubr
          -31 -35 -1 -31 hhcurveto
          -114 3 -5 -31 51 -1 13 -25 -4 -21 rlinecurve
          -1 -8 -3 -5 -6 -10 -258 -428 rcurveline
          -122 452 rlineto
          -1 4 -1 10 4 vvcurveto
          28 5 52 0 26 hhcurveto
          -77 callsubr
          hintmask 00110000
          -3 -36 -70 0 -38 hhcurveto
          -127 39 callgsubr
          84 1 -6 -36 10 hvcurveto
          hintmask 00000010
          171 callsubr
          hintmask 01001000
          -51 -306 -55 callgsubr
          hintmask 00100010
          29 callsubr
          hintmask 10010000
          -492 -1077 -104 callsubr
        </CharString>
        <CharString name="Ygrave">
          142 callsubr
          84 -21 196 -20 -80 callgsubr
          hintmask 00110000
          -249 116 -73 callgsubr
        </CharString>
        <CharString name="Yhookabove">
          142 callsubr
          85 69 callsubr
          344 86 -76 86 -45 86 -8 59 -20 26 callgsubr
          hintmask 0100010000000000
          895 930 119 callgsubr
          -31 -35 -1 -31 hhcurveto
          -114 3 -5 -31 51 -1 13 -25 -4 -21 rlinecurve
          -1 -8 -3 -5 -6 -10 -258 -428 rcurveline
          -122 452 rlineto
          -1 4 -1 10 4 vvcurveto
          28 5 52 0 26 116 callgsubr
          -70 0 -38 hhcurveto
          -127 39 callgsubr
          84 1 -6 -36 10 hvcurveto
          hintmask 0000001000000000
          171 callsubr
          hintmask 1000100000000000
          -51 -306 -55 callgsubr
          hintmask 0100001000000000
          29 callsubr
          hintmask 0001000000100000
          -228 248 96 callsubr
          hintmask 0001000010001000
          3 17 -9 11 -14 -65 callsubr
          hintmask 0010000010010100
          -58 callgsubr
          5 -4 5 hhcurveto
          hintmask 0010000001000000
          152 callgsubr
          hintmask 0010000000011000
          28 callsubr
          hintmask 0000000000000100
          -25 callgsubr
        </CharString>
        <CharString name="Ytilde">
          142 callsubr
          53 45 -6 45 -80 callgsubr
          hintmask 00010000
          -146 153 -56 callsubr
        </CharString>
        <CharString name="Z">
          159 callsubr
          hstem
          -74 callsubr
          endchar
        </CharString>
        <CharString name="Zacute">
          159 callsubr
          138 callgsubr
          hintmask 11000000
          -74 callsubr
          hintmask 00110000
          146 1168 -97 callgsubr
        </CharString>
        <CharString name="Zcaron">
          159 callsubr
          96 callgsubr
          hintmask 11000000
          -74 callsubr
          hintmask 00110000
          128 1195 -63 callsubr
        </CharString>
        <CharString name="Zdotaccent">
          159 callsubr
          75 106 hstemhm
          433 107 hintmask 11000000
          -74 callsubr
          hintmask 00110000
          -3 1089 -104 callsubr
        </CharString>
        <CharString name="Zdotbelow">
          611 133 callgsubr
          34 896 31 hstemhm
          227 107 hintmask 01100000
          -74 callsubr
          hintmask 10010000
          -209 -147 -104 callsubr
        </CharString>
        <CharString name="Zeta">
          159 callsubr
          hstem
          -74 callsubr
          endchar
        </CharString>
        <CharString name="a">
          54 callsubr
          hstem
          -107 callgsubr
          endchar
        </CharString>
        <CharString name="aacute">
          171 callgsubr
          296 -20 -104 callgsubr
          hintmask 00110000
          156 590 3 callgsubr
          endchar
        </CharString>
        <CharString name="abreve">
          54 callsubr
          126 194 callgsubr
          hstemhm
          243 22 255 22 hintmask 11000000
          -14 callgsubr
          186 618 -59 callgsubr
          endchar
        </CharString>
        <CharString name="abreveacute">
          54 callsubr
          129 35 397 -20 hstemhm
          229 184 callsubr
          0 -33 callsubr
          22 184 47 callgsubr
          rlineto
          hintmask 00000010
          158 callgsubr
        </CharString>
        <CharString name="abrevedotbelow">
          165 callsubr
          216 callgsubr
          126 194 callgsubr
          hstemhm
          171 107 -35 22 255 22 hintmask 01111011
          -107 callgsubr
          186 618 -59 callgsubr
          hintmask 10000100
          -264 -1005 -104 callsubr
        </CharString>
        <CharString name="abrevegrave">
          54 callsubr
          129 35 161 -20 hstemhm
          229 22 256 -33 callsubr
          5 62 -15 callgsubr
          -10 21 29 27 hhcurveto
          11 7 -6 -6 9 hvcurveto
          endchar
        </CharString>
        <CharString name="abrevehookabove">
          54 callsubr
          129 35 171 19 113 35 13 19 hstemhm
          229 123 callgsubr
          hintmask 110000000000000000010000
          -107 callgsubr
          hintmask 001000100000100000010000
          173 533 rmoveto
          -22 hlineto
          -127 -21 -76 -34 -57 hhcurveto
          -59 -64 33 128 21 hvcurveto
          -22 hlineto
          hintmask 001001000001000011010000
          107 callsubr
          hintmask 000000010000000000000000
          -47 -47 -25 -41 -7 hvcurveto
          hintmask 000000001000000000000000
          -19 -3 12 -11 16 hhcurveto
          hintmask 000010000001000000000000
          15 16 11 18 3 hvcurveto
          224 callgsubr
          2 17 -9 11 -13 2 rrcurveto
          hintmask 000011000010000011000000
          134 callsubr
          hintmask 000100000100001000000000
          174 callgsubr
          -5 103 callsubr
          hintmask 000000000000100000000000
          95 callgsubr
          hintmask 000110000000010100100000
          52 callsubr
        </CharString>
        <CharString name="abrevetilde">
          54 callsubr
          129 35 221 163 callsubr
          229 201 callsubr
          hintmask 11000001
          -107 callgsubr
          hintmask 00101101
          91 callsubr
          66 129 132 callsubr
          hintmask 00010000
          139 callgsubr
          hintmask 00001010
          -42 callsubr
          hintmask 00010000
          15 -15 rlineto
          hintmask 00001010
          139 callsubr
          hintmask 00010000
          21 callgsubr
        </CharString>
        <CharString name="acaron">
          171 callgsubr
          296 -20 -104 callgsubr
          hintmask 00110000
          192 609 -43 callsubr
        </CharString>
        <CharString name="acircumflex">
          171 callgsubr
          296 -20 -104 callgsubr
          hintmask 00110000
          147 343 -57 callgsubr
          endchar
        </CharString>
        <CharString name="acircumflexacute">
          171 callgsubr
          412 -20 -104 callgsubr
          hintmask 00110000
          135 callgsubr
          56 360 rmoveto
          23 17 -12 -30 callsubr
        </CharString>
        <CharString name="acircumflexdotbelow">
          165 callsubr
          216 callgsubr
          141 161 callsubr
          171 107 hintmask 01111000
          -107 callgsubr
          147 343 -57 callgsubr
          hintmask 10000100
          -201 -715 -104 callsubr
        </CharString>
        <CharString name="acircumflexgrave">
          171 callgsubr
          196 -20 -104 callgsubr
          hintmask 00110000
          157 343 34 callsubr
          -9 20 27 callsubr
        </CharString>
        <CharString name="acircumflexhookabove">
          500 -11 22 415 22 141 140 callgsubr
          hintmask 1100000000000000
          -107 callgsubr
          hintmask 0010100010000000
          157 343 -13 callsubr
        </CharString>
        <CharString name="acircumflextilde">
          171 callgsubr
          236 45 -6 45 -104 callgsubr
          hintmask 00101000
          157 343 30 callsubr
        </CharString>
        <CharString name="acute">
          500 37 callgsubr
          512 830 3 callgsubr
          endchar
        </CharString>
        <CharString name="acute.cap">
          214 callgsubr
          196 -20 hstem
          545 637 -97 callgsubr
        </CharString>
        <CharString name="acute.dup">
          500 37 callgsubr
          512 830 3 callgsubr
          endchar
        </CharString>
        <CharString name="acute.ts1">
          500 37 callgsubr
          528 830 3 callgsubr
          endchar
        </CharString>
        <CharString name="adblgrave">
          171 callgsubr
          296 -20 -104 callgsubr
          hintmask 00110000
          -43 341 -91 callgsubr
          183 13 -91 callgsubr
          endchar
        </CharString>
        <CharString name="adieresis">
          54 callsubr
          218 100 hstemhm
          222 100 93 100 hintmask 11001000
          -107 callgsubr
          hintmask 00111000
          -34 476 -53 callsubr
        </CharString>
        <CharString name="adotbelow">
          165 callsubr
          216 callgsubr
          hstemhm
          171 107 hintmask 01100000
          -107 callgsubr
          hintmask 10010000
          -78 -387 -104 callsubr
        </CharString>
        <CharString name="ae">
          -50 callgsubr
        </CharString>
        <CharString name="ae.dup">
          -50 callgsubr
        </CharString>
        <CharString name="aeacute">
          722 -11 22 -22 25 97 21 0 22 75 21 -19 21 174 22 141 161 callsubr
          60 77 154 77 -8 77 -76 77 -70 66 110 57 68 66 hintmask 0110011000000111
          713 119 rmoveto
          10 2 -8 2 -5 hhcurveto
          -9 -2 -4 -16 -7 hvcurveto
          -50 -24 -54 -47 -62 hhcurveto
          -10 -137 0 217 37 hvcurveto
          273 159 callgsubr
          111 19 -44 85 -109 hhcurveto
          hintmask 0000001000010000
          -44 -59 -16 -61 -61 hvcurveto
          48 -21 -55 29 -64 hhcurveto
          -80 -79 -46 -67 -11 hvcurveto
          -30 -5 17 -17 26 hhcurveto
          28 21 20 26 5 hvcurveto
          2 12 0 33 -46 1 rrcurveto
          hintmask 1000101001100000
          32 31 49 14 36 hhcurveto
          51 48 -41 -87 -14 hvcurveto
          -8 -48 rlineto
          -162 -130 -62 -96 -16 hvcurveto
          -79 -13 88 -24 67 hhcurveto
          81 69 40 49 32 hvcurveto
          -81 45 77 -8 30 hhcurveto
          113 61 126 callsubr
          hintmask 1000011001001001
          -231 hlineto
          146 34 88 28 36 hhcurveto
          95 -17 -135 -39 -5 hvcurveto
          -309 -120 rmoveto
          -64 -11 -66 -57 -72 hhcurveto
          -47 -34 34 47 7 hvcurveto
          hintmask 0001100000001000
          9 54 55 77 163 6 -4 -24 -3 -20 4 -31 rrcurveto
          hintmask 0010000000010000
          1 -11 -1 -8 -1 -3 rrcurveto
          hintmask 0000000110000000
          263 698 3 callgsubr
          endchar
        </CharString>
        <CharString name="agrave">
          171 callgsubr
          296 -20 -104 callgsubr
          hintmask 00110000
          53 341 -91 callgsubr
          endchar
        </CharString>
        <CharString name="ahookabove">
          54 callsubr
          174 69 callsubr
          278 9 callsubr
          hintmask 1100010010000000
          -107 callgsubr
          hintmask 0001000100000000
          116 514 -3 callsubr
        </CharString>
        <CharString name="amacron">
          54 callsubr
          252 32 -104 callgsubr
          hintmask 00100000
          191 460 -45 callsubr
        </CharString>
        <CharString name="ampersand">
          778 -22 31 391 31 541 22 hstemhm
          475 25 24 63 -12 63 -5 83 -78 63 15 25 -25 83 hintmask 0100000101000000
          794 400 rmoveto
          5 31 -98 -3 rlineto
          -11 -83 1 2 -27 hvcurveto
          hintmask 0101010000000000
          -87 callgsubr
          46 22 -19 -25 -5 hvcurveto
          -1 -10 -6 -7 -2 -3 -48 -66 -50 -65 -56 -61 -19 39 -85 225 -14 139 rrcurveto
          hintmask 1010100010000000
          151 185 11 65 5 32 rrcurveto
          85 14 0 80 -72 hhcurveto
          -70 -78 -67 -138 -23 hvcurveto
          -10 -59 -11 -107 18 -124 -167 -205 rcurveline
          -29 -36 -18 -40 -6 -41 rrcurveto
          -102 -17 55 -97 110 hhcurveto
          106 81 70 25 28 hvcurveto
          -41 28 45 -54 70 hhcurveto
          68 78 53 90 17 hvcurveto
          -25 hlineto
          -81 -16 -71 -31 -42 hhcurveto
          -53 -43 98 13 -6 hvcurveto
          hintmask 1111001000000000
          51 57 12 17 85 110 47 61 26 34 88 1 rrcurveto
          -294 431 rmoveto
          -5 -30 -11 -64 -130 -161 -6 63 -1 87 15 88 rrcurveto
          32 5 21 126 75 hhcurveto
          34 22 -26 -115 -19 hvcurveto
          -77 -737 rmoveto
          -36 -38 -73 -49 -79 hhcurveto
          -19 -46 1 76 -12 hvcurveto
          -5 35 2 47 9 52 18 108 33 41 39 48 45 54 rcurveline
          17 -104 60 -185 49 -88 rrcurveto
          endchar
        </CharString>
        <CharString name="anglearc">
          778 -112 -21 766 -20 hstemhm
          605 40 -37 40 hintmask 00100000
          751 20 rmoveto
          2 9 -5 7 -7 3 -145 54 rcurveline
          23 50 17 53 9 54 rrcurveto
          hintmask 11010000
          9 54 1 53 -7 50 163 54 rcurveline
          8 3 8 7 1 9 rrcurveto
          202 callsubr
          -3 -2 0 -1 -2 hvcurveto
          -164 -54 -15 67 -29 63 -44 52 rlinecurve
          4 -3 -4 2 -6 hhcurveto
          -11 -11 -9 -11 -2 hvcurveto
          -1 -6 1 -5 4 -3 40 -48 27 -57 15 -62 -493 -163 rcurveline
          -8 -3 -7 -7 -1 -9 -2 -9 5 -7 7 -3 438 -163 rcurveline
          -35 -62 -47 -57 -56 -48 -4 -3 -3 -5 -1 -6 rrcurveto
          -11 -2 8 -9 11 hhcurveto
          6 5 2 4 4 hvcurveto
          61 52 51 63 37 67 146 -54 rcurveline
          -1 2 2 0 3 hhcurveto
          11 11 9 11 1 hvcurveto
          -146 230 rmoveto
          -8 -49 -16 -49 -21 -46 -387 144 rcurveline
          435 144 rlineto
          hintmask 00100000
          6 -46 -1 -49 -8 -49 rrcurveto
          endchar
        </CharString>
        <CharString name="angleleft">
          389 -506 -21 1556 -20 hstem
          249 -505 rmoveto
          21 0 -23 -1 21 vhcurveto
          -55 737 303 742 rlineto
          15 5 6 21 -22 hhcurveto
          -14 -1 -9 -15 -9 -22 -301 -740 rcurveline
          55 -745 rlineto
          -15 1 0 -18 16 hhcurveto
          13 10 10 12 2 hvcurveto
          endchar
        </CharString>
        <CharString name="angleright">
          389 -506 -21 hstem
          321 251 rmoveto
          -55 740 -1 22 -5 15 -12 1 rlinecurve
          -22 -2 -21 -15 1 hvcurveto
          55 -742 -301 -737 -9 -21 8 23 -6 -21 rlinecurve
          -12 -2 6 -10 13 hhcurveto
          16 6 18 15 7 hvcurveto
          endchar
        </CharString>
        <CharString name="aogonek">
          500 -211 47 153 22 -17 31 401 22 -39 callsubr
          endchar
        </CharString>
        <CharString name="aogonekacute">
          500 -211 47 153 22 -17 31 401 22 141 -21 296 -20 -39 callsubr
          hintmask 00001100
          156 590 3 callgsubr
          endchar
        </CharString>
        <CharString name="aring">
          54 callsubr
          173 23 316 23 -104 callgsubr
          hintmask 00110000
          98 562 -26 callsubr
        </CharString>
        <CharString name="aringacute">
          54 callsubr
          173 23 130 23 216 -20 -104 callgsubr
          hintmask 00111000
          82 469 21 callsubr
        </CharString>
        <CharString name="asciicircum">
          611 583 -21 182 -20 hstem
          688 584 rmoveto
          -256 160 -310 -160 8 -22 291 123 252 -123 rlineto
          endchar
        </CharString>
        <CharString name="asciitilde">
          611 193 43 -25 43 -8 43 -25 43 hstemhm
          hintmask 10010000
          623 290 rmoveto
          -11 17 rlineto
          -41 -56 -58 -30 -51 hhcurveto
          -40 -26 17 20 -31 hvcurveto
          17 -27 -28 17 -40 hhcurveto
          hintmask 00100000
          -25 -27 -8 -10 -24 hvcurveto
          hintmask 01000000
          -21 -10 -22 -11 -20 -14 -61 -44 rcurveline
          hintmask 10010000
          11 -17 rlineto
          41 56 58 30 51 hhcurveto
          40 26 -17 -20 32 hvcurveto
          -17 26 28 -17 40 hhcurveto
          hintmask 01000000
          25 28 8 10 23 hvcurveto
          hintmask 00100000
          22 10 22 11 19 14 rrcurveto
          endchar
        </CharString>
        <CharString name="asciitilde.low">
          611 1 45 33 45 hstem
          545 109 132 callsubr
          -31 -42 -39 -47 -54 -62 -20 78 -64 hhcurveto
          -5 hlineto
          -59 -5 -56 -59 -45 -44 14 -15 rcurveline
          33 36 49 45 47 63 21 -78 64 hhcurveto
          1 hlineto
          57 61 63 45 46 hvcurveto
          endchar
        </CharString>
        <CharString name="asterisk">
          500 618 -21 431 -20 hstem
          327 53 10 53 vstem
          554 719 rmoveto
          3 17 -10 5 -9 4 -131 67 rcurveline
          152 67 13 6 10 4 3 17 rlinecurve
          13 2 -8 15 -16 hhcurveto
          -4 -5 0 -9 -14 hvcurveto
          -140 -92 43 170 rlineto
          15 3 -12 10 -13 hhcurveto
          -16 -13 -12 -13 -2 hvcurveto
          -13 -170 -110 91 rlineto
          10 -10 -2 0 -7 hhcurveto
          -16 -14 -15 -13 -2 hvcurveto
          -3 -17 10 -5 9 -4 131 -67 rcurveline
          -152 -67 -13 -6 -10 -4 -3 -17 rlinecurve
          -13 -2 8 -15 16 hhcurveto
          4 5 0 9 14 hvcurveto
          140 92 -43 -170 rlineto
          -13 -2 9 -12 16 hhcurveto
          13 14 10 15 3 hvcurveto
          1 14 12 156 110 -91 rlineto
          -10 10 2 0 7 hhcurveto
          16 14 15 13 2 hvcurveto
          endchar
        </CharString>
        <CharString name="asterisk.math">
          500 57 -21 430 -20 hstemhm
          92 197 -166 30 -20 197 -177 197 -117 197 -172 30 -13 53 -28 30 100 30 hintmask 0000001000000000
          460 158 rmoveto
          4 20 -21 7 -13 7 -36 18 rcurveline
          -25 13 -26 18 -27 9 rrcurveto
          2 vlineto
          31 9 32 18 29 13 42 18 rcurveline
          15 7 23 7 3 20 rrcurveto
          15 3 -11 13 -15 hhcurveto
          -14 -14 -12 -8 -12 hvcurveto
          -120 -79 3 18 6 19 5 18 rlinecurve
          23 91 rlineto
          hintmask 0000010000000000
          2 6 2 6 1 6 rrcurveto
          hintmask 0100100000000000
          11 2 -5 18 -17 hhcurveto
          hintmask 0101000010000000
          -2 hlineto
          -15 -15 -12 -16 -3 hvcurveto
          -9 -56 6 -54 -9 -55 -94 79 rcurveline
          8 -10 -10 12 -14 hhcurveto
          -16 -13 -14 -14 -3 hvcurveto
          -3 -21 19 -6 14 -7 36 -18 rcurveline
          25 -13 26 -18 27 -9 rrcurveto
          -2 vlineto
          -31 -9 -32 -18 -29 -13 rrcurveto
          hintmask 0000100000000000
          -42 -18 rlineto
          hintmask 0010000000000000
          -16 -7 -21 -6 -4 -21 rrcurveto
          -14 -2 9 -14 16 hhcurveto
          14 14 12 8 12 hvcurveto
          hintmask 0000000010000000
          120 79 rlineto
          hintmask 1000001000000000
          -9 -54 -24 -57 -9 -54 rrcurveto
          -16 -3 11 -12 15 hhcurveto
          hintmask 1000000100000000
          2 hlineto
          15 13 16 13 2 hvcurveto
          hintmask 0010000001100000
          1 6 0 6 6 vvcurveto
          7 91 1 18 0 19 3 18 rlinecurve
          94 -79 rlineto
          -8 10 10 -12 14 hhcurveto
          15 15 13 15 2 hvcurveto
          endchar
        </CharString>
        <CharString name="at">
          778 -11 204 callsubr
          259 22 281 204 callsubr
          hstemhm
          137 25 108 69 55 25 134 69 -35 69 -59 25 93 25 33 25 hintmask 1010110010001000
          798 464 rmoveto
          12 67 24 148 -61 140 rrcurveto
          105 -47 -79 59 -94 hhcurveto
          -177 -191 -210 -287 -48 hvcurveto
          -271 -45 105 -226 195 hhcurveto
          hintmask 1111111101011000
          39 72 5 28 84 hvcurveto
          52 17 95 44 2 13 rrcurveto
          10 2 -7 0 -16 hhcurveto
          -27 hlineto
          -60 -91 -103 -35 -100 hhcurveto
          -172 -104 208 267 44 hvcurveto
          280 47 182 195 157 hhcurveto
          98 69 -69 -97 40 hvcurveto
          52 -128 -24 -144 -10 -59 -5 -32 -12 -71 -16 -52 rrcurveto
          -28 -9 -25 -76 -50 hhcurveto
          -19 -13 13 68 12 hvcurveto
          60 360 rlineto
          24 4 -1 1 -25 hhcurveto
          -33 hlineto
          86 -24 -49 32 -48 hhcurveto
          -105 -116 -127 -176 -29 hvcurveto
          -176 -29 73 -127 105 hhcurveto
          51 50 33 64 46 hvcurveto
          -55 -2 35 -42 52 hhcurveto
          96 30 150 131 21 hvcurveto
          -219 -107 rmoveto
          -8 -45 -50 -53 -4 -4 rrcurveto
          -27 -25 -33 -23 -36 hhcurveto
          -72 -38 125 156 26 hvcurveto
          156 26 80 125 72 hhcurveto
          hintmask 0000000000100000
          44 24 -34 -21 12 hvcurveto
          4 -7 27 -49 -6 -41 rrcurveto
          endchar
        </CharString>
        <CharString name="atilde">
          54 callsubr
          222 45 3 45 -104 callgsubr
          hintmask 00110000
          185 508 -86 callsubr
        </CharString>
        <CharString name="b">
          130 callgsubr
          61 42 306 22 488 42 hstem
          474 83 vstem
          557 216 rmoveto
          127 21 -81 99 -114 hhcurveto
          -78 -51 -47 -18 -19 hvcurveto
          99 595 -28 callsubr
          -146 -874 rlineto
          25 hlineto
          46 62 rlineto
          -23 12 33 -50 74 hhcurveto
          119 121 98 129 21 hvcurveto
          -83 1 rmoveto
          -6 -37 -12 -60 -36 -45 rrcurveto
          -31 -27 -43 -33 -54 hhcurveto
          -45 -32 24 37 -18 hvcurveto
          -10 21 0 3 3 18 34 206 rcurveline
          4 19 0 1 13 16 rrcurveto
          56 49 56 8 24 hhcurveto
          45 32 -26 -38 17 hvcurveto
          20 -41 -7 -57 -7 -41 rrcurveto
          endchar
        </CharString>
        <CharString name="backslash">
          500 -489 -21 1530 -20 hstem
          361 -490 rmoveto
          0 1 5 -3 13 vhcurveto
          -95 1470 rlineto
          11 -2 -2 11 -14 hhcurveto
          -11 -10 -9 -11 -2 hvcurveto
          0 -1 -5 3 -13 vhcurveto
          95 -1470 rlineto
          -11 2 2 -11 14 hhcurveto
          11 10 9 11 2 hvcurveto
          endchar
        </CharString>
        <CharString name="baht">
          708 -34 -21 56 31 458 22 419 31 67 -20 hstem
          494 100 -68 31 -26 31 cntrmask 00000111
          695 256 rmoveto
          15 92 -29 88 -80 46 rrcurveto
          11 -20 -23 9 -25 hhcurveto
          1 vlineto
          109 25 86 93 17 105 rrcurveto
          112 19 -62 124 -140 hhcurveto
          12 67 rlineto
          -31 hlineto
          -12 -67 rlineto
          -335 144 callgsubr
          121 callgsubr
          335 hlineto
          -9 -56 rlineto
          31 hlineto
          9 56 rlineto
          31 29 0 10 32 hvcurveto
          108 34 75 107 18 104 rrcurveto
          -319 -224 rmoveto
          -112 hlineto
          -23 -12 7 25 4 hvcurveto
          71 426 rlineto
          149 hlineto
          3 22 rmoveto
          -149 hlineto
          65 385 rlineto
          23 3 11 11 28 hhcurveto
          112 hlineto
          68 -677 rmoveto
          -14 -89 -68 -131 -105 -2 77 458 rcurveline
          120 4 -152 -84 -14 hvcurveto
          53 474 rmoveto
          -14 -88 -47 -88 -98 -37 69 416 rcurveline
          90 -3 10 -124 -8 -66 rrcurveto
          endchar
        </CharString>
        <CharString name="bar">
          278 164 callsubr
          33 40 213 40 vstem
          73 -508 rmoveto
          253 1515 rlineto
          12 213 callgsubr
          -11 -10 -9 -12 -2 hvcurveto
          -253 -1515 rlineto
          -11 -2 8 -9 11 hhcurveto
          11 10 9 11 2 hvcurveto
          endchar
        </CharString>
        <CharString name="bigcircle">
          214 callsubr
          1520 182 callgsubr
          hintmask 00100000
          23 callgsubr
          hintmask 11010000
          -83 callgsubr
          15 callgsubr
          endchar
        </CharString>
        <CharString name="blanksymbol">
          556 -10 22 408 22 322 22 187 -20 hstem
          473 84 vstem
          557 217 rmoveto
          115 19 -69 110 -128 hhcurveto
          -52 -50 -25 -39 -42 hvcurveto
          37 222 195 164 -18 22 -169 -141 54 328 -147 68 callgsubr
          18 hlineto
          32 28 -3 -48 -8 hvcurveto
          -50 -298 -83 -70 18 -23 57 47 -89 -535 25 2 15 17 31 42 rlineto
          2 hlineto
          -48 16 55 -24 50 hhcurveto
          124 114 108 119 20 hvcurveto
          -84 -2 rmoveto
          -9 -53 -16 -56 -40 -41 rrcurveto
          -32 -30 -42 -21 -40 hhcurveto
          -44 -71 44 52 9 hvcurveto
          33 206 rlineto
          60 10 84 46 56 hhcurveto
          108 5 -126 -79 -13 hvcurveto
          endchar
        </CharString>
        <CharString name="braceleft">
          145 callgsubr
          340 -518 rmoveto
          3 vlineto
          5 1 -3 5 -6 hhcurveto
          -78 -41 81 98 17 hvcurveto
          64 383 15 90 -46 77 -75 26 rlinecurve
          84 26 71 77 15 90 64 383 rcurveline
          98 16 68 81 78 hhcurveto
          6 4 5 5 1 hvcurveto
          1 3 rlineto
          5 1 -4 5 -6 hhcurveto
          -2 hlineto
          -111 -104 -91 -111 -18 hvcurveto
          -64 -383 rlineto
          -99 -17 -67 -83 -78 hhcurveto
          -6 -5 -4 -6 -1 hvcurveto
          -2 vlineto
          -6 -1 3 -4 6 hhcurveto
          78 40 -83 -99 -16 hvcurveto
          -64 -383 rlineto
          -111 -19 74 -91 111 hhcurveto
          2 hlineto
          6 5 5 5 1 hvcurveto
          endchar
        </CharString>
        <CharString name="braceright">
          145 callgsubr
          468 249 rmoveto
          2 vlineto
          6 1 -3 4 -6 hhcurveto
          -78 -41 83 99 17 hvcurveto
          64 383 rlineto
          111 18 -74 91 -111 hhcurveto
          -2 hlineto
          -6 -4 -5 -5 -1 hvcurveto
          -1 -3 rlineto
          -5 -1 4 -5 6 hhcurveto
          78 40 -81 -98 -16 hvcurveto
          -64 -383 -15 -90 45 -77 76 -26 rlinecurve
          -85 -26 -70 -77 -15 -90 -64 -383 rcurveline
          -98 -17 -67 -81 -78 hhcurveto
          -6 -5 -5 -5 -1 hvcurveto
          -3 vlineto
          -5 -1 3 -5 6 hhcurveto
          2 hlineto
          111 104 91 111 19 hvcurveto
          64 383 rlineto
          99 16 68 83 78 hhcurveto
          6 5 4 6 1 hvcurveto
          endchar
        </CharString>
        <CharString name="bracketleft">
          278 -528 200 callsubr
          167 -528 rmoveto
          7 40 rlineto
          -97 181 callsubr
          97 hlineto
          6 40 rlineto
          -137 hlineto
          -259 -1556 rlineto
          endchar
        </CharString>
        <CharString name="bracketright">
          278 -528 200 callsubr
          71 -528 rmoveto
          259 1556 rlineto
          -137 hlineto
          -6 175 callgsubr
          endchar
        </CharString>
        <CharString name="breve">
          500 574 194 callgsubr
          hstem
          243 22 255 22 vstem
          542 858 -59 callgsubr
          endchar
        </CharString>
        <CharString name="breve.cap">
          215 callgsubr
          161 -20 hstem
          215 184 callsubr
          vstem
          515 689 -89 callgsubr
          endchar
        </CharString>
        <CharString name="breve.ts1">
          500 578 194 callgsubr
          hstem
          189 22 366 22 vstem
          599 862 rmoveto
          -22 hlineto
          -106 -18 -75 -140 -133 hhcurveto
          -125 -32 143 103 17 hvcurveto
          -22 hlineto
          -116 -20 25 -168 151 hhcurveto
          135 96 147 137 23 hvcurveto
          endchar
        </CharString>
        <CharString name="brokenbar">
          167 -505 -21 1554 -20 21 -20 hstemhm
          -20 40 103 40 hintmask 10110000
          20 -497 rmoveto
          109 651 rlineto
          11 1 -6 9 -11 hhcurveto
          -5 -1 -17 -3 -2 -17 -3 -13 rlinecurve
          -106 -640 rlineto
          -16 -3 5 -10 13 hhcurveto
          4 hlineto
          16 2 3 14 2 13 rrcurveto
          143 858 rmoveto
          108 649 rlineto
          10 1 -6 9 -10 hhcurveto
          hintmask 01001000
          -6 -1 -16 -3 -3 -17 -2 -13 rlinecurve
          -106 -638 rlineto
          -15 -3 2 -13 15 hhcurveto
          4 hlineto
          16 3 4 16 2 13 rrcurveto
          endchar
        </CharString>
        <CharString name="bullet">
          500 56 388 hstem
          98 388 vstem
          486 250 rmoveto
          107 18 -73 87 -107 hhcurveto
          -107 -101 -87 -107 -18 hvcurveto
          -107 -18 72 -87 107 hhcurveto
          107 102 87 107 18 hvcurveto
          endchar
        </CharString>
        <CharString name="c">
          444 -11 25 280 92 37 25 hstemhm
          70 83 173 83 -40 92 hintmask 11111000
          -41 callgsubr
          hintmask 01000100
          25 callsubr
          hintmask 10111000
          68 11 -69 39 -77 hhcurveto
          -125 -110 -108 -124 -21 hvcurveto
          -128 -21 82 -99 116 hhcurveto
          134 52 120 10 2 hvcurveto
          endchar
        </CharString>
        <CharString name="cacute">
          -51 callsubr
          71 711 3 callgsubr
          endchar
        </CharString>
        <CharString name="caron">
          500 37 callgsubr
          548 849 -43 callsubr
        </CharString>
        <CharString name="caron.cap">
          193 callsubr
          196 -20 hstem
          527 664 -63 callsubr
        </CharString>
        <CharString name="caron.ts1">
          611 657 -21 231 -20 hstem
          636 850 rmoveto
          -17 17 -199 -177 -139 177 -23 -17 153 -214 rlineto
          endchar
        </CharString>
        <CharString name="ccaron">
          -51 callsubr
          107 730 -43 callsubr
        </CharString>
</ttFont>
